<?xml version="1.0" encoding="utf-8"?>
<!-- Generator: Adobe Illustrator 16.0.0, SVG Export Plug-In . SVG Version: 6.00 Build 0)  -->
<!DOCTYPE svg PUBLIC "-//W3C//DTD SVG 1.1//EN" "http://www.w3.org/Graphics/SVG/1.1/DTD/svg11.dtd">
<svg version="1.1" id="Layer_1" xmlns="http://www.w3.org/2000/svg" xmlns:xlink="http://www.w3.org/1999/xlink" x="0px" y="0px"
	 width="340.16px" height="340.16px" viewBox="0 0 340.16 340.16" enable-background="new 0 0 340.16 340.16" xml:space="preserve">
<g>
	<path fill="#FFFFFF" d="M68.993,169.096c3.529-1.914,5.316-4.915,5.316-8.937v-0.113c0-3.644-1.486-6.426-4.409-8.266
		c-2.383-1.536-5.441-2.313-9.088-2.313H41.775v41.209h19.149c4.081,0,7.491-0.813,10.129-2.422
		c3.301-1.995,4.972-5.068,4.972-9.135v-0.113C76.025,174.325,73.661,170.994,68.993,169.096 M53.364,165.544v-6.215h5.042
		c4.48,0,4.48,2.272,4.48,3.021v0.114c0,0.761,0,3.079-4.703,3.079H53.364z M64.437,177.448v0.112c0,2.191-1.546,3.255-4.734,3.255
		h-6.339v-6.562h6.229C64.437,174.253,64.437,176.661,64.437,177.448"/>
	<path fill="#FFFFFF" d="M104.881,176.354c5.145-2.439,7.751-6.667,7.751-12.569v-0.115c0-4.811-1.664-8.495-4.943-10.954
		c-2.904-2.154-6.791-3.25-11.548-3.25H79.293v41.211h11.59v-12.213h2.152l7.813,12.213h13.464L104.881,176.354z M100.986,164.338
		v0.114c0,2.907-1.748,4.321-5.344,4.321h-4.759v-8.523h4.702C99.218,160.25,100.986,161.431,100.986,164.338"/>
	<polygon fill="#FFFFFF" points="213.539,179.895 213.539,174.716 229.295,174.716 229.295,165.024 213.539,165.02 213.539,160.25 
		230.961,160.25 230.961,149.467 202.114,149.467 202.114,190.676 231.236,190.676 231.236,179.895 	"/>
	<path fill="#FFFFFF" d="M115.823,190.676h11.645v-26.892h-11.645V190.676z M115.823,160.25h11.645v-10.783h-11.645V160.25z"/>
	<path fill="#FFFFFF" d="M176.617,162.682c1.6-1.435,3.767-2.202,6.396-2.362c0,0,2.775-0.069,3.98-0.069h11.59v-10.783h-14.202
		c-6.424,0-11.752,1.735-15.837,5.17c-1.472,1.242-2.678,2.663-3.668,4.229c-1.003-1.625-2.253-3.084-3.785-4.346
		c-4.009-3.354-9.281-5.053-15.667-5.053h-14.42v41.209h14.199c6.424,0,11.752-1.734,15.839-5.169
		c1.47-1.241,2.678-2.664,3.666-4.229c1.004,1.625,2.253,3.084,3.783,4.35c4.013,3.349,9.284,5.048,15.669,5.048h14.424v-20.125
		h-11.59v9.344h-3.001c-3.058,0-5.566-0.859-7.458-2.547c-1.87-1.673-2.818-4.101-2.818-7.218v-0.115
		C173.717,166.894,174.697,164.428,176.617,162.682z M155.868,170.13c0,3.117-0.978,5.586-2.902,7.335
		c-1.796,1.612-4.277,2.43-7.376,2.43h-3V160.25h3c3.058,0,5.571,0.858,7.458,2.547c1.872,1.673,2.82,4.103,2.82,7.218V170.13z"/>
	<path fill="#FF4800" d="M238.277,190.686h60.107v-41.17h-60.107V190.686z M281.56,185.384h-7.542l-8.57-22.781h-5.25v22.781h-8.266
		v-22.781h-8.379v-7.798h18.96h6.103h3.068l0.057,0.17l6.125,18.312l6.228-18.481h9.011L281.56,185.384z"/>
</g>
</svg>
