<?xml version="1.0" encoding="utf-8"?>
<!-- Generator: Adobe Illustrator 17.1.0, SVG Export Plug-In . SVG Version: 6.00 Build 0)  -->
<!DOCTYPE svg PUBLIC "-//W3C//DTD SVG 1.1//EN" "http://www.w3.org/Graphics/SVG/1.1/DTD/svg11.dtd">
<svg version="1.1" id="Layer_1" xmlns="http://www.w3.org/2000/svg" xmlns:xlink="http://www.w3.org/1999/xlink" x="0px" y="0px"
	 width="579.1px" height="119.1px" viewBox="0 0 579.1 119.1" enable-background="new 0 0 579.1 119.1" xml:space="preserve">
<g>
	<defs>
		<rect id="SVGID_1_" width="579.1" height="119.1"/>
	</defs>
	<clipPath id="SVGID_2_">
		<use xlink:href="#SVGID_1_"  overflow="visible"/>
	</clipPath>
	<path clip-path="url(#SVGID_2_)" fill="#151E28" d="M149.5,54.5c0.1,1,0.3,2.6,1.5,3c0.8,0.3,1.6,0.3,1.8,0.3c0.1,0,0.2,0,0.2,0.1
		c0,0.2-0.3,0.3-0.6,0.3h-2.9c-0.7,0-1.5,0-1.9,0c-0.7-0.1-0.9-0.1-0.9-0.3c0-0.1,0.2-0.2,0.3-0.2c0.1,0,0.1-0.6,0.1-1.1l-1.4-14.7
		h-0.1l-7,14.8c-0.6,1.3-0.7,1.5-0.9,1.5c-0.2,0-0.3-0.3-0.9-1.3c-0.7-1.4-3.2-6.3-3.3-6.6c-0.3-0.5-3.4-7.3-3.8-8.1h-0.1l-1.1,13.2
		c0,0.5,0,1,0,1.5c0,0.4,0.3,0.8,0.7,0.9c0.5,0.1,0.9,0.1,1.1,0.1c0.1,0,0.2,0.1,0.2,0.1c0,0.2-0.2,0.3-0.5,0.3
		c-1.1,0-2.4-0.1-2.6-0.1c-0.3,0-1.6,0.1-2.4,0.1c-0.3,0-0.5-0.1-0.5-0.3c0-0.1,0.1-0.1,0.3-0.1c0.2,0,0.4,0,0.9-0.1
		c0.9-0.2,1-1.3,1.1-2.4l2-18.5c0.1-0.3,0.1-0.5,0.3-0.5c0.2,0,0.3,0.1,0.4,0.4l8.7,17.9l8.4-17.9c0.1-0.3,0.2-0.5,0.4-0.5
		c0.2,0,0.3,0.2,0.3,0.8L149.5,54.5z M158.2,58c-0.1,0.9,0.3,1.1,0.7,0.5l0.3-0.5l2.4-3c3.5-4.6,7.3-9.1,11-13.5
		c0.3-0.3,0.4-0.1,0.4,0.2v8.2c0,2.7,0,5-0.1,6.2c-0.1,0.8-0.3,1.5-0.8,1.6c-0.3,0.1-0.6,0.1-0.9,0.1c-0.2,0-0.2,0.1-0.2,0.2
		c0,0.2,0.1,0.2,0.5,0.2c0.9,0,2.6-0.1,2.8-0.1c0.1,0,1.9,0.1,3.5,0.1c0.3,0,0.5-0.1,0.5-0.2c0-0.1-0.1-0.2-0.2-0.2
		c-0.3,0-0.9-0.1-1.3-0.1c-0.9-0.1-1-0.7-1.1-1.6c-0.1-1.2-0.1-3.4-0.1-6.2v-5V37c0.1-0.9-0.3-1.1-0.7-0.5
		c-5.8,7.5-9.8,12.3-13.9,17c-0.1,0.1-0.3,0.1-0.3-0.1c0-9.4,0-13.8,0.1-14.7c0.1-1,0.3-1.5,1.1-1.6c0.3-0.1,0.5-0.1,0.7-0.1
		c0.1,0,0.2-0.1,0.2-0.2c0-0.2-0.1-0.2-0.5-0.2c-0.9,0-2.6,0.1-2.8,0.1s-1.9-0.1-3.2-0.1c-0.3,0-0.5,0.1-0.5,0.2
		c0,0.1,0.1,0.2,0.2,0.2c0.3,0,0.7,0,1,0.1c0.9,0.2,1.2,0.7,1.2,1.6c0.1,0.9,0,1.7,0.1,6.1V58z M202.7,44.9c0-4.4,0-5.2,0.1-6.1
		c0.1-1,0.3-1.5,1.1-1.6c0.3-0.1,0.5-0.1,0.7-0.1c0.1,0,0.2-0.1,0.2-0.2c0-0.2-0.1-0.2-0.5-0.2c-0.9,0-2.6,0.1-2.8,0.1
		c-0.1,0-1.9-0.1-3.2-0.1c-0.3,0-0.5,0.1-0.5,0.2c0,0.1,0.1,0.2,0.2,0.2c0.3,0,0.7,0,1,0.1c0.9,0.2,1.2,0.7,1.2,1.6
		c0.1,0.9,0.1,2,0.1,6.5v0.6c0,0.1-0.1,0.2-0.2,0.2h-12.1c-0.1,0-0.2,0-0.2-0.2v-0.6c0-4.4,0-5.5,0.1-6.5c0.1-1,0.3-1.5,1.1-1.6
		c0.3-0.1,0.5-0.1,0.7-0.1c0.1,0,0.2-0.1,0.2-0.2c0-0.2-0.1-0.2-0.5-0.2c-0.9,0-2.6,0.1-2.8,0.1c-0.1,0-1.9-0.1-3.2-0.1
		c-0.3,0-0.5,0.1-0.5,0.2c0,0.1,0.1,0.2,0.2,0.2c0.3,0,0.7,0,1,0.1c0.9,0.2,1.2,0.7,1.2,1.6c0.1,0.9,0.1,1.7,0.1,6.1v5
		c0,2.7,0,5-0.1,6.2c-0.1,0.8-0.3,1.5-0.8,1.6c-0.3,0.1-0.6,0.1-0.9,0.1c-0.2,0-0.2,0.1-0.2,0.2c0,0.2,0.1,0.2,0.5,0.2
		c0.9,0,2.6-0.1,2.8-0.1c0.1,0,1.9,0.1,3.5,0.1c0.3,0,0.5-0.1,0.5-0.2c0-0.1-0.1-0.2-0.2-0.2c-0.3,0-0.9-0.1-1.3-0.1
		c-0.9-0.1-1-0.7-1.1-1.6c-0.1-1.2-0.1-3.4-0.1-6.2v-2.7c0-0.1,0.1-0.2,0.2-0.2h12.1c0.1,0,0.2,0.1,0.2,0.2v2.7c0,2.7,0,5-0.1,6.2
		c-0.1,0.8-0.3,1.5-0.8,1.6c-0.3,0.1-0.6,0.1-0.9,0.1c-0.2,0-0.2,0.1-0.2,0.2c0,0.2,0.1,0.2,0.5,0.2c0.9,0,2.6-0.1,2.8-0.1
		c0.1,0,1.9,0.1,3.5,0.1c0.3,0,0.5-0.1,0.5-0.2c0-0.1-0.1-0.2-0.2-0.2c-0.3,0-0.9-0.1-1.3-0.1c-0.9-0.1-1-0.7-1.1-1.6
		c-0.1-1.2-0.1-3.4-0.1-6.2V44.9z M212.9,58c-0.1,0.9,0.3,1.1,0.7,0.5l0.3-0.5l2.4-3c3.5-4.6,7.3-9.1,11-13.5
		c0.3-0.3,0.4-0.1,0.4,0.2v8.2c0,2.7,0,5-0.1,6.2c-0.1,0.8-0.3,1.5-0.8,1.6c-0.3,0.1-0.6,0.1-0.9,0.1c-0.2,0-0.2,0.1-0.2,0.2
		c0,0.2,0.1,0.2,0.5,0.2c0.9,0,2.6-0.1,2.8-0.1c0.1,0,1.9,0.1,3.5,0.1c0.3,0,0.5-0.1,0.5-0.2c0-0.1-0.1-0.2-0.2-0.2
		c-0.3,0-0.9-0.1-1.3-0.1c-0.9-0.1-1-0.7-1.1-1.6c-0.1-1.2-0.1-3.4-0.1-6.2v-5V37c0.1-0.9-0.3-1.1-0.7-0.5
		c-5.8,7.5-9.8,12.3-13.9,17c-0.1,0.1-0.3,0.1-0.3-0.1c0-9.4,0-13.8,0.1-14.7c0.1-1,0.3-1.5,1.1-1.6c0.3-0.1,0.5-0.1,0.7-0.1
		c0.1,0,0.2-0.1,0.2-0.2c0-0.2-0.1-0.2-0.5-0.2c-0.9,0-2.6,0.1-2.8,0.1c-0.1,0-1.9-0.1-3.2-0.1c-0.3,0-0.5,0.1-0.5,0.2
		c0,0.1,0.1,0.2,0.2,0.2c0.3,0,0.7,0,1,0.1c0.9,0.2,1.2,0.7,1.2,1.6c0.1,0.9,0,1.7,0.1,6.1V58z M235.9,47c0,6.6,4.2,11.5,12.8,11.5
		c1.8,0,4-0.2,5.1-0.7c0.5-0.2,0.6-0.3,0.7-0.8c0.3-1,0.6-3.4,0.6-3.6c0-0.2-0.1-0.4-0.2-0.4c-0.2,0-0.2,0.1-0.3,0.4
		c-0.1,0.5-0.5,1.8-1.1,2.4c-1.1,1.2-2.8,1.4-5,1.4c-6.1,0-10.3-5-10.3-10.4c0-5,1.8-9.5,9.1-9.5c3.6,0,6.9,1.2,6.9,4.5
		c0,0.4,0,0.6,0.2,0.6c0.2,0,0.3-0.4,0.3-1.8c0-1.7,0.2-3,0.2-3.3c0-0.2-0.1-0.3-0.4-0.3c-1.1,0-3.6-0.8-7-0.8
		C238.8,36.2,235.9,42.5,235.9,47 M269.1,37.9l3.6,0.1c2.7,0.1,3.4,0.7,3.5,1.6l0,0.3c0,0.4,0.1,0.5,0.2,0.5c0.1,0,0.2-0.1,0.2-0.4
		c0-0.3,0.1-2.3,0.1-3.1c0-0.2,0-0.3-0.1-0.3c-0.2,0-1,0.3-2.8,0.3h-10.7c-0.3,0-1.4-0.1-2.2-0.1c-0.8-0.1-1.1-0.3-1.3-0.3
		c-0.1,0-0.2,0.4-0.3,0.5c-0.1,0.2-0.6,2.7-0.6,3c0,0.2,0.1,0.3,0.1,0.3c0.1,0,0.2-0.1,0.3-0.3c0.1-0.2,0.2-0.4,0.5-0.9
		c0.5-0.7,1.1-0.9,2.9-0.9l4.2-0.1v12c0,2.7,0,5-0.1,6.2c-0.1,0.8-0.3,1.5-0.8,1.6c-0.3,0.1-0.6,0.1-0.9,0.1c-0.2,0-0.2,0.1-0.2,0.2
		c0,0.2,0.1,0.2,0.5,0.2c0.9,0,2.6-0.1,2.8-0.1c0.1,0,1.9,0.1,3.5,0.1c0.3,0,0.5-0.1,0.5-0.2c0-0.1-0.1-0.2-0.2-0.2
		c-0.3,0-0.9-0.1-1.3-0.1c-0.9-0.1-1-0.7-1.1-1.6c-0.1-1.2-0.1-3.4-0.1-6.2V37.9z M285.1,38c0-0.2,0.1-0.3,0.2-0.3
		c0.6,0,3.1,0.1,3.3,0.1c1.7,0,2.4,0.6,2.5,0.9c0.2,0.4,0.3,0.9,0.3,1.1c0,0.2,0.1,0.3,0.2,0.3c0.1,0,0.2-0.1,0.2-0.3
		c0.1-0.3,0.1-1.6,0.1-1.9c0.1-0.8,0.2-1.1,0.2-1.3c0-0.1-0.1-0.3-0.2-0.3c-0.1,0-0.2,0.1-0.4,0.2c-0.1,0-0.8,0.1-1.3,0.1
		c-0.5,0-3.4,0.1-6.4,0.1c-0.1,0-1.9-0.1-3.2-0.1c-0.3,0-0.5,0.1-0.5,0.2c0,0.1,0.1,0.2,0.2,0.2c0.3,0,0.7,0,1,0.1
		c0.9,0.2,1.1,0.6,1.2,1.3c0.1,0.5,0.1,1.7,0.1,6.5v5c0,3.5-0.1,5.8-0.2,6.5c-0.2,0.8-0.3,1.1-0.8,1.2c-0.3,0.1-0.6,0.1-0.9,0.1
		c-0.2,0-0.2,0.1-0.2,0.2c0,0.2,0.1,0.2,0.5,0.2c0.6,0,2-0.1,2.8-0.1c0.8,0,2.7,0.2,7,0.2c1.1,0,1.3,0,1.5-0.7
		c0.1-0.6,0.4-2.5,0.4-2.8c0-0.2,0-0.4-0.2-0.4c-0.1,0-0.2,0.1-0.3,0.4c-0.2,1.2-0.5,1.7-1.3,2c-0.7,0.3-2,0.3-2.7,0.3
		c-2.8,0-3.3-0.5-3.3-2.3v-7.4c0-0.1,0.1-0.2,0.2-0.2c0.5,0,3.3,0.1,4.1,0.1c1.1,0.1,1.4,0.6,1.5,1c0.1,0.4,0.1,0.7,0.1,0.9
		c0,0.1,0.1,0.3,0.2,0.3c0.2,0,0.2-0.2,0.2-0.5c0-1.4,0.3-3.3,0.3-3.4c0-0.2-0.1-0.2-0.1-0.2c-0.1,0-0.2,0.1-0.4,0.4
		c-0.3,0.3-0.7,0.3-1.3,0.4c-0.7,0.1-4.2,0.1-4.5,0.1c-0.1,0-0.2-0.1-0.2-0.3V38z M300.1,49.9c0,2.7,0,5-0.1,6.2
		c-0.1,0.8-0.3,1.5-0.8,1.6c-0.3,0.1-0.6,0.1-0.9,0.1c-0.2,0-0.2,0.1-0.2,0.2c0,0.2,0.1,0.2,0.5,0.2c0.9,0,2.6-0.1,2.7-0.1
		c0.1,0,1.9,0.1,3.5,0.1c0.3,0,0.5-0.1,0.5-0.2c0-0.1-0.1-0.2-0.2-0.2c-0.3,0-0.9-0.1-1.3-0.1c-0.9-0.1-1-0.7-1.1-1.6
		c-0.1-1.2-0.1-3.4-0.1-6.2V38.2c0-0.3,0.1-0.5,0.2-0.5c0.3-0.1,0.7-0.2,1.2-0.2c0.7,0,2.4-0.1,3.9,1.4c1.5,1.5,1.6,3.4,1.6,4.4
		c0,2.6-2.2,4.6-4.9,4.6c-0.6,0-0.8,0-0.8,0.3c0,0.1,0.2,0.2,0.3,0.2c0.1,0,0.5,0,0.6,0c4,0,7-2.7,7-6.8c0-1.5-0.8-2.8-1.4-3.4
		c-0.5-0.4-1.7-1.6-5.3-1.6c-1.3,0-3,0.1-3.6,0.1c-0.2,0-1.9-0.1-3.2-0.1c-0.3,0-0.5,0.1-0.5,0.2c0,0.1,0.1,0.2,0.2,0.2
		c0.3,0,0.7,0,1,0.1c0.9,0.2,1.2,0.7,1.2,1.6c0.1,0.9,0.1,1.7,0.1,6.1V49.9z M315.1,47c0,6.6,4.2,11.5,12.8,11.5
		c1.8,0,4-0.2,5.1-0.7c0.5-0.2,0.6-0.3,0.7-0.8c0.3-1,0.6-3.4,0.6-3.6c0-0.2-0.1-0.4-0.2-0.4c-0.2,0-0.2,0.1-0.3,0.4
		c-0.1,0.5-0.5,1.8-1.1,2.4c-1.1,1.2-2.8,1.4-5,1.4c-6.1,0-10.3-5-10.3-10.4c0-5,1.8-9.5,9.1-9.5c3.6,0,6.9,1.2,6.9,4.5
		c0,0.4,0,0.6,0.2,0.6c0.2,0,0.3-0.4,0.3-1.8c0-1.7,0.2-3,0.2-3.3c0-0.2-0.1-0.3-0.4-0.3c-1.1,0-3.6-0.8-7-0.8
		C317.9,36.2,315.1,42.5,315.1,47 M347.3,37.9l3.6,0.1c2.7,0.1,3.4,0.7,3.5,1.6l0,0.3c0,0.4,0.1,0.5,0.2,0.5c0.1,0,0.2-0.1,0.2-0.4
		c0-0.3,0.1-2.3,0.1-3.1c0-0.2,0-0.3-0.1-0.3c-0.2,0-1,0.3-2.8,0.3h-10.7c-0.3,0-1.4-0.1-2.2-0.1c-0.8-0.1-1.1-0.3-1.3-0.3
		c-0.1,0-0.2,0.4-0.3,0.5c-0.1,0.2-0.6,2.7-0.6,3c0,0.2,0.1,0.3,0.1,0.3c0.1,0,0.2-0.1,0.3-0.3c0.1-0.2,0.2-0.4,0.5-0.9
		c0.5-0.7,1.1-0.9,2.9-0.9l4.2-0.1v12c0,2.7,0,5-0.1,6.2c-0.1,0.8-0.3,1.5-0.8,1.6c-0.3,0.1-0.6,0.1-0.9,0.1c-0.2,0-0.2,0.1-0.2,0.2
		c0,0.2,0.1,0.2,0.5,0.2c0.9,0,2.6-0.1,2.8-0.1c0.1,0,1.9,0.1,3.5,0.1c0.3,0,0.5-0.1,0.5-0.2c0-0.1-0.1-0.2-0.2-0.2
		c-0.3,0-0.9-0.1-1.3-0.1c-0.9-0.1-1-0.7-1.1-1.6c-0.1-1.2-0.1-3.4-0.1-6.2V37.9z M373.2,52c0,3-2.4,6.2-7.3,6.2
		c-0.7,0-3.6-0.2-3.8-0.2c-0.1,0-1.9,0.1-2.8,0.1c-0.3,0-0.5-0.1-0.5-0.2c0-0.1,0.1-0.2,0.2-0.2c0.3,0,0.6,0,0.9-0.1
		c0.5-0.1,0.6-0.4,0.8-1.2c0.1-0.7,0.2-3,0.2-6.5v-5c0-4.8,0-6-0.1-6.5c-0.1-0.7-0.3-1.1-1.2-1.3c-0.2-0.1-0.7-0.1-1-0.1
		c-0.1,0-0.2-0.1-0.2-0.2c0-0.2,0.1-0.2,0.5-0.2c1.3,0,3.1,0.1,3.2,0.1c0.7,0,1.8-0.1,3.1-0.1c4.7,0,5.7,2.8,5.7,4.3
		c0,2.3-1.3,3.7-2.7,5.1C370.3,46.7,373.2,48.7,373.2,52 M363.2,45.5c0,0.2,0.1,0.3,0.2,0.3c0.2,0,0.7,0.1,1.7,0.1
		c1.6,0,2-0.1,2.6-0.7c0.6-0.7,1-1.7,1-2.9c0-2.4-1.1-4.9-3.8-4.9c-0.3,0-0.9,0-1.4,0.1c-0.3,0.1-0.3,0.1-0.3,0.3V45.5z M370.7,53.3
		c0-1.7-0.6-4.2-2.8-5.7c-1.1-0.7-2-0.9-3-0.9c-1.7,0-1.7,0-1.7,0.2v6.9c0,2.1,0.1,2.6,1,3.1c0.8,0.4,2,0.4,2.5,0.4
		C368.2,57.3,370.7,56.5,370.7,53.3 M398.6,46.9c0,6.4-4.5,11.6-11.4,11.6c-7.8,0-11-6.1-11-11.2c0-4.6,3.4-11.1,11.2-11.1
		C393.8,36.2,398.6,40.3,398.6,46.9 M395.9,47.7c0-6.8-4.2-10.5-8.6-10.5c-4.8,0-8.3,3.1-8.3,9.4c0,6.6,4,10.9,9.1,10.9
		C390.6,57.5,395.9,56,395.9,47.7 M414.8,49.9c0,2.7,0,5-0.1,6.2c-0.1,0.8-0.3,1.5-0.8,1.6c-0.3,0.1-0.6,0.1-0.9,0.1
		c-0.2,0-0.2,0.1-0.2,0.2c0,0.2,0.1,0.2,0.5,0.2c0.9,0,2.5-0.1,2.7-0.1c0.2,0,1.9,0.1,3.3,0.1c0.3,0,0.5-0.1,0.5-0.2
		c0-0.1-0.1-0.2-0.2-0.2c-0.3,0-0.7-0.1-1.1-0.1c-0.9-0.1-1-0.7-1.1-1.6c-0.2-1.6-0.1-3.3-0.1-6.2v-2.8h0.1c1.4,1.7,7.4,8.2,8.7,9.2
		c1.2,1,1.9,1.6,3.4,1.7c0.6,0.1,1.2,0.1,2,0.1h1.5c0.5,0,0.6-0.1,0.6-0.2c0-0.1-0.2-0.2-0.4-0.2c-0.2,0-1-0.1-1.8-0.4
		c-1.4-0.6-1.8-1-4.2-3.2c-1.2-1.1-7.1-7.2-7.8-8c0.6-0.7,5.5-5.5,6.3-6.2c1.3-1.2,1.9-1.9,3.1-2.4c0.6-0.3,1.2-0.4,1.6-0.4
		c0.2,0,0.3-0.1,0.3-0.2c0-0.1-0.1-0.2-0.4-0.2c-0.7,0-2.6,0.1-2.7,0.1c-0.7,0-1.6-0.1-2.1-0.1c-0.2,0-0.3,0.1-0.3,0.2
		c0,0.1,0.1,0.2,0.3,0.2c0.2,0.1,0.4,0.3,0.4,0.6c0,0.5-0.7,1.2-1.5,2c-1,1.1-6.2,6.3-6.7,6.9H417v-1.7c0-4.4,0-5.2,0.1-6.1
		c0.1-1,0.3-1.5,1.1-1.6c0.3-0.1,0.5-0.1,0.7-0.1c0.1,0,0.2-0.1,0.2-0.2c0-0.2-0.1-0.2-0.5-0.2c-0.9,0-2.5,0.1-2.8,0.1
		c-0.2,0-1.8-0.1-3.1-0.1c-0.3,0-0.5,0.1-0.5,0.2c0,0.1,0.1,0.2,0.2,0.2c0.3,0,0.7,0,1,0.1c0.9,0.2,1.2,0.7,1.2,1.6
		c0.1,0.9,0.1,1.7,0.1,6.1V49.9z M444.5,55.9c-0.8,2-1.4,3.4-2.8,3.4c-1.1,0-1.9-1.3-1.9-2.8c0-0.4,0-0.5-0.2-0.5
		c-0.1,0-0.1,0-0.2,0.3c-0.1,0.9-0.2,2.6-0.2,3.6c0,0.3,0.1,0.5,0.4,0.7c0.5,0.3,1.5,0.5,2,0.5c1.5,0,2.9-1.5,3.9-3.9l7-17
		c0.8-2,1.3-2.4,1.7-2.7c0.5-0.3,1.2-0.3,1.4-0.3c0.2,0,0.3-0.1,0.3-0.2c0-0.1-0.1-0.2-0.5-0.2c-0.8,0-2,0.1-2.2,0.1
		c-0.3,0-1.7-0.1-2.8-0.1c-0.5,0-0.6,0.1-0.7,0.2c0,0.1,0.1,0.2,0.3,0.2c0.3,0,0.7,0,1.1,0.1c0.3,0.1,0.3,0.4,0.3,0.7l-0.4,1.3
		c-0.7,2.2-3.9,10.4-5.5,14.4l-6.4-13.6c-0.5-1-0.7-1.8-0.7-2.2c0-0.2,0.1-0.4,0.4-0.6c0.3-0.1,0.8-0.1,1.1-0.1
		c0.2,0,0.3-0.1,0.3-0.2c0-0.1-0.3-0.2-0.8-0.2c-1.1,0-2.4,0.1-2.6,0.1c-0.3,0-2-0.1-3.3-0.1c-0.5,0-0.7,0-0.7,0.2
		c0,0.1,0.1,0.2,0.2,0.2c0.2,0,0.7,0,1.1,0.1c1,0.3,1.3,0.7,2,2.2L444.5,55.9z M459.8,48.5l2.5-7.7c0.1-0.4,0.3-0.4,0.4,0l2.7,7.7
		l0.5,1.4l2.6,7c0.2,0.5,0,0.7-0.2,0.8c-0.1,0-0.2,0.1-0.2,0.2c0,0.2,0.3,0.2,0.9,0.2c2,0.1,4,0.1,4.5,0.1c0.3,0,0.6-0.1,0.6-0.2
		c0-0.1-0.1-0.2-0.3-0.2c-0.3,0-0.7,0-1.1-0.2c-0.6-0.2-1.4-0.6-2.4-3.2c-1.7-4.3-6.2-16.1-6.6-17.2c-0.3-0.9-0.5-1-0.6-1
		c-0.2,0-0.3,0.2-0.6,1.1L455.9,55c-0.5,1.4-1.1,2.5-2.4,2.7c-0.2,0-0.6,0.1-0.8,0.1c-0.1,0-0.3,0.1-0.3,0.2c0,0.2,0.2,0.2,0.5,0.2
		c1.3,0,2.9-0.1,3.2-0.1c0.3,0,1.5,0.1,2.2,0.1c0.3,0,0.4-0.1,0.4-0.2c0-0.1-0.1-0.2-0.3-0.2h-0.3c-0.5,0-1.1-0.3-1.1-0.8
		c0-0.5,0.1-1.2,0.4-1.9L459.8,48.5z M490.4,52c0,3-2.4,6.2-7.3,6.2c-0.7,0-3.6-0.2-3.8-0.2c-0.1,0-1.9,0.1-2.8,0.1
		c-0.3,0-0.5-0.1-0.5-0.2c0-0.1,0.1-0.2,0.2-0.2c0.3,0,0.6-0.1,0.9-0.1c0.6-0.1,0.7-0.7,0.8-1.6c0.1-1.2,0.1-3.4,0.1-6.2v-5
		l-0.1-6.1c0-1-0.5-1.4-1.1-1.6c-0.3-0.1-0.7-0.1-0.9-0.1c-0.1,0-0.2-0.1-0.2-0.2c0-0.2,0.1-0.2,0.5-0.2c0.9,0,2.7,0.1,2.9,0.1
		c0.1,0,1.9-0.1,2.8-0.1c0.3,0,0.5,0.1,0.5,0.2c0,0.1-0.1,0.2-0.2,0.2c-0.2,0-0.4,0-0.7,0.1c-0.8,0.1-1,0.6-1,1.6l0,6.8
		c0,0.2,0.1,0.3,0.2,0.3c0.2,0,0.7,0.1,1.7,0.1C485.4,45.9,490.4,46.8,490.4,52 M488,53.3c0-1.7-0.6-4.2-2.8-5.7
		c-1.6-1.1-2.6-0.8-4.4-0.8c-0.3,0-0.4,0.2-0.4,0.4v1.4c0,2.2,0,5.7,0,6.1c0.1,1.4,0.1,1.8,1,2.2c0.8,0.4,2,0.4,2.5,0.4
		C485.5,57.3,488,56.5,488,53.3 M501.8,37.9l3.6,0.1c2.7,0.1,3.4,0.7,3.5,1.6l0,0.3c0,0.4,0.1,0.5,0.2,0.5c0.1,0,0.2-0.1,0.2-0.4
		c0-0.3,0.1-2.3,0.1-3.1c0-0.2,0-0.3-0.1-0.3c-0.2,0-1,0.3-2.8,0.3h-10.7c-0.3,0-1.4-0.1-2.2-0.1c-0.8-0.1-1.1-0.3-1.3-0.3
		c-0.1,0-0.2,0.4-0.3,0.5c-0.1,0.2-0.6,2.7-0.6,3c0,0.2,0.1,0.3,0.1,0.3c0.1,0,0.2-0.1,0.3-0.3c0.1-0.2,0.2-0.4,0.5-0.9
		c0.5-0.7,1.1-0.9,2.9-0.9l4.2-0.1v12c0,2.7,0,5-0.1,6.2c-0.1,0.8-0.3,1.5-0.8,1.6c-0.3,0.1-0.6,0.1-0.9,0.1c-0.2,0-0.2,0.1-0.2,0.2
		c0,0.2,0.1,0.2,0.5,0.2c0.9,0,2.6-0.1,2.8-0.1c0.1,0,1.9,0.1,3.5,0.1c0.3,0,0.5-0.1,0.5-0.2c0-0.1-0.1-0.2-0.2-0.2
		c-0.3,0-0.9-0.1-1.3-0.1c-0.9-0.1-1-0.7-1.1-1.6c-0.1-1.2-0.1-3.4-0.1-6.2V37.9z M522.8,55.9c-0.8,2-1.4,3.4-2.8,3.4
		c-1.1,0-1.9-1.3-1.9-2.8c0-0.4,0-0.5-0.2-0.5c-0.1,0-0.1,0-0.2,0.3c-0.1,0.9-0.2,2.6-0.2,3.6c0,0.3,0.1,0.5,0.4,0.7
		c0.5,0.3,1.5,0.5,2,0.5c1.5,0,2.9-1.5,3.9-3.9l7-17c0.8-2,1.3-2.4,1.7-2.7c0.5-0.3,1.2-0.3,1.4-0.3c0.2,0,0.3-0.1,0.3-0.2
		c0-0.1-0.1-0.2-0.5-0.2c-0.8,0-2,0.1-2.2,0.1c-0.3,0-1.7-0.1-2.8-0.1c-0.5,0-0.6,0.1-0.7,0.2c0,0.1,0.1,0.2,0.3,0.2
		c0.3,0,0.7,0,1.1,0.1c0.3,0.1,0.3,0.4,0.3,0.7l-0.4,1.3c-0.7,2.2-3.9,10.4-5.5,14.4l-6.4-13.6c-0.5-1-0.7-1.8-0.7-2.2
		c0-0.2,0.1-0.4,0.4-0.6c0.3-0.1,0.8-0.1,1.1-0.1c0.2,0,0.3-0.1,0.3-0.2c0-0.1-0.3-0.2-0.8-0.2c-1.1,0-2.4,0.1-2.6,0.1
		c-0.3,0-2-0.1-3.3-0.1c-0.5,0-0.7,0-0.7,0.2c0,0.1,0.1,0.2,0.2,0.2c0.2,0,0.7,0,1.1,0.1c1,0.3,1.3,0.7,2,2.2L522.8,55.9z
		 M538.5,49.9c0,2.7,0,5-0.1,6.2c-0.1,0.8-0.3,1.5-0.8,1.6c-0.3,0.1-0.6,0.1-0.9,0.1c-0.2,0-0.2,0.1-0.2,0.2c0,0.2,0.1,0.2,0.5,0.2
		c0.9,0,2.6-0.1,2.7-0.1c0.1,0,1.9,0.1,3.5,0.1c0.3,0,0.5-0.1,0.5-0.2c0-0.1-0.1-0.2-0.2-0.2c-0.3,0-0.9-0.1-1.3-0.1
		c-0.9-0.1-1-0.7-1.1-1.6c-0.1-1.2-0.1-3.4-0.1-6.2V38.2c0-0.3,0.1-0.5,0.2-0.5c0.3-0.1,0.7-0.2,1.2-0.2c0.7,0,2.4-0.1,3.9,1.4
		c1.5,1.5,1.6,3.4,1.6,4.4c0,2.6-2.2,4.6-4.9,4.6c-0.6,0-0.8,0-0.8,0.3c0,0.1,0.2,0.2,0.3,0.2c0.1,0,0.5,0,0.6,0c4,0,7-2.7,7-6.8
		c0-1.5-0.8-2.8-1.4-3.4c-0.5-0.4-1.7-1.6-5.3-1.6c-1.3,0-3,0.1-3.6,0.1c-0.2,0-1.9-0.1-3.2-0.1c-0.3,0-0.5,0.1-0.5,0.2
		c0,0.1,0.1,0.2,0.2,0.2c0.3,0,0.7,0,1,0.1c0.9,0.2,1.2,0.7,1.2,1.6c0.1,0.9,0.1,1.7,0.1,6.1V49.9z M569,52c0,3-2.4,6.2-7.3,6.2
		c-0.7,0-3.6-0.2-3.8-0.2c-0.1,0-1.9,0.1-2.8,0.1c-0.3,0-0.5-0.1-0.5-0.2c0-0.1,0.1-0.2,0.2-0.2c0.3,0,0.6-0.1,0.9-0.1
		c0.6-0.1,0.7-0.7,0.8-1.6c0.1-1.2,0.1-3.4,0.1-6.2v-5c0-4.4,0-4.4-0.1-6.1c0-1-0.5-1.4-1.1-1.6c-0.3-0.1-0.7-0.1-0.9-0.1
		c-0.1,0-0.2-0.1-0.2-0.2c0-0.2,0.1-0.2,0.5-0.2c0.9,0,2.7,0.1,2.9,0.1c0.1,0,1.9-0.1,2.8-0.1c0.3,0,0.5,0.1,0.5,0.2
		c0,0.1-0.1,0.2-0.2,0.2c-0.2,0-0.4,0-0.7,0.1c-0.8,0.1-1,0.6-1,1.6l0,6.8c0,0.2,0.1,0.3,0.2,0.3c0.2,0,0.7,0.1,1.7,0.1h0.9
		C565.8,45.9,569,48.2,569,52 M566.5,53.3c0-2.6-1.4-6.4-5.9-6.4c-1.5,0-1.7,0.3-1.6,1v0.7c0,2.2,0,5.7,0,6.1c0.1,1.4,0.1,1.8,1,2.2
		c0.8,0.4,2,0.4,2.5,0.4C564.1,57.3,566.5,56.5,566.5,53.3 M575.9,44.9c0-4.4,0-5.2,0.1-6.1c0.1-1,0.3-1.5,1.1-1.6
		c0.3-0.1,0.5-0.1,0.7-0.1c0.1,0,0.2-0.1,0.2-0.2c0-0.2-0.1-0.2-0.5-0.2c-0.9,0-2.6,0.1-2.8,0.1c-0.1,0-1.9-0.1-2.9-0.1
		c-0.3,0-0.5,0.1-0.5,0.2c0,0.1,0.1,0.2,0.2,0.2c0.2,0,0.6,0,0.9,0.1c0.6,0.1,0.9,0.6,1,1.6c0.1,0.9,0.1,1.7,0.1,6.1v5
		c0,2.7,0,5-0.1,6.2c-0.1,0.8-0.3,1.5-0.8,1.6c-0.3,0.1-0.6,0.1-0.9,0.1c-0.2,0-0.2,0.1-0.2,0.2c0,0.2,0.1,0.2,0.5,0.2
		c0.9,0,2.6-0.1,2.8-0.1c0.1,0,1.9,0.1,3.5,0.1c0.3,0,0.5-0.1,0.5-0.2c0-0.1-0.1-0.2-0.2-0.2c-0.3,0-0.9-0.1-1.3-0.1
		c-0.9-0.1-1-0.7-1.1-1.6c-0.1-1.2-0.1-3.4-0.1-6.2V44.9z M127.9,86c0,2.7,0,5-0.1,6.2c-0.1,0.8-0.3,1.4-0.8,1.6
		c-0.3,0.1-0.6,0.1-0.9,0.1c-0.2,0-0.2,0.1-0.2,0.2c0,0.2,0.1,0.2,0.5,0.2c0.9,0,2.6-0.1,2.7-0.1c0.1,0,1.9,0.1,3.5,0.1
		c0.3,0,0.5-0.1,0.5-0.2c0-0.1-0.1-0.2-0.2-0.2c-0.3,0-0.9-0.1-1.3-0.1c-0.9-0.1-1-0.7-1.1-1.6c-0.1-1.2-0.1-3.4-0.1-6.2V74.3
		c0-0.3,0.1-0.5,0.2-0.5c0.3-0.1,0.7-0.2,1.2-0.2c0.7,0,2.4-0.1,3.9,1.4c1.5,1.5,1.6,3.4,1.6,4.4c0,2.6-2.2,4.6-4.9,4.6
		c-0.6,0-0.8,0-0.8,0.3c0,0.1,0.2,0.2,0.3,0.2c0.1,0,0.5,0,0.6,0c4,0,7-2.7,7-6.8c0-1.5-0.8-2.8-1.4-3.4c-0.5-0.4-1.7-1.6-5.3-1.6
		c-1.3,0-3,0.1-3.6,0.1c-0.2,0-1.9-0.1-3.2-0.1c-0.3,0-0.5,0.1-0.5,0.2c0,0.1,0.1,0.2,0.2,0.2c0.3,0,0.7,0,1,0.1
		c0.9,0.2,1.2,0.7,1.2,1.6c0.1,0.9,0.1,1.7,0.1,6.1V86z M165.3,83c0,6.4-4.5,11.6-11.4,11.6c-7.8,0-11-6.1-11-11.2
		c0-4.6,3.4-11.1,11.2-11.1C160.5,72.4,165.3,76.4,165.3,83 M162.6,83.8c0-6.8-4.2-10.5-8.7-10.5c-4.8,0-8.3,3.1-8.3,9.4
		c0,6.6,4,10.9,9.1,10.9C157.3,93.6,162.6,92.1,162.6,83.8 M169.7,83.2c0,6.6,4.2,11.5,12.8,11.5c1.8,0,4-0.2,5.1-0.7
		c0.5-0.2,0.6-0.3,0.7-0.8c0.3-1,0.6-3.4,0.6-3.6c0-0.2-0.1-0.4-0.2-0.4c-0.2,0-0.2,0.1-0.3,0.4c-0.1,0.5-0.5,1.8-1.1,2.4
		c-1.1,1.2-2.8,1.4-5,1.4c-6.1,0-10.3-5-10.3-10.4c0-5,1.8-9.5,9.1-9.5c3.6,0,6.9,1.2,6.9,4.5c0,0.4,0,0.6,0.2,0.6
		c0.2,0,0.3-0.4,0.3-1.8c0-1.7,0.2-3,0.2-3.3c0-0.2-0.1-0.3-0.4-0.3c-1.1,0-3.6-0.8-7-0.8C172.6,72.4,169.7,78.6,169.7,83.2
		 M192.6,83.2c0,6.6,4.2,11.5,12.8,11.5c1.8,0,4-0.2,5.1-0.7c0.5-0.2,0.6-0.3,0.7-0.8c0.3-1,0.6-3.4,0.6-3.6c0-0.2-0.1-0.4-0.2-0.4
		c-0.2,0-0.2,0.1-0.3,0.4c-0.1,0.5-0.5,1.8-1.1,2.4c-1.1,1.2-2.8,1.4-5,1.4c-6.1,0-10.3-5-10.3-10.4c0-5,1.8-9.5,9.1-9.5
		c3.6,0,6.9,1.2,6.9,4.5c0,0.4,0,0.6,0.2,0.6c0.2,0,0.3-0.4,0.3-1.8c0-1.7,0.2-3,0.2-3.3c0-0.2-0.1-0.3-0.4-0.3
		c-1.1,0-3.6-0.8-7-0.8C195.5,72.4,192.6,78.6,192.6,83.2 M218.8,94.1c-0.1,0.9,0.3,1.1,0.7,0.5l0.3-0.5l2.4-3
		c3.5-4.6,7.3-9.1,11-13.5c0.3-0.3,0.4-0.1,0.4,0.2V86c0,2.7,0,5-0.1,6.2c-0.1,0.8-0.3,1.4-0.8,1.6c-0.3,0.1-0.6,0.1-0.9,0.1
		c-0.2,0-0.2,0.1-0.2,0.2c0,0.2,0.1,0.2,0.5,0.2c0.9,0,2.6-0.1,2.8-0.1c0.1,0,1.9,0.1,3.5,0.1c0.3,0,0.5-0.1,0.5-0.2
		c0-0.1-0.1-0.2-0.2-0.2c-0.3,0-0.9-0.1-1.3-0.1c-0.9-0.1-1-0.7-1.1-1.6C236,91,236,88.8,236,86v-5v-7.9c0.1-0.9-0.3-1.1-0.7-0.5
		c-5.8,7.5-9.8,12.3-13.9,17c-0.1,0.1-0.3,0.1-0.3-0.1c0-9.4,0-13.8,0.1-14.7c0.1-1,0.3-1.5,1.1-1.6c0.3-0.1,0.5-0.1,0.7-0.1
		c0.1,0,0.2-0.1,0.2-0.2c0-0.2-0.1-0.2-0.5-0.2c-0.9,0-2.6,0.1-2.8,0.1c-0.1,0-1.9-0.1-3.2-0.1c-0.3,0-0.5,0.1-0.5,0.2
		c0,0.1,0.1,0.2,0.2,0.2c0.3,0,0.7,0,1,0.1c0.9,0.2,1.2,0.7,1.2,1.6c0.1,0.9,0,1.7,0.1,6.1V94.1z M246.1,94.1
		c-0.1,0.9,0.3,1.1,0.7,0.5l0.3-0.5c0.9-1.1,1.6-2.1,2.4-3c3.5-4.6,7.3-9.1,11-13.5c0.3-0.3,0.4-0.1,0.4,0.2V86c0,2.7,0,5-0.1,6.2
		c-0.1,0.8-0.3,1.4-0.8,1.6c-0.3,0.1-0.6,0.1-0.9,0.1c-0.2,0-0.2,0.1-0.2,0.2c0,0.2,0.1,0.2,0.5,0.2c0.9,0,2.6-0.1,2.8-0.1
		c0.1,0,1.9,0.1,3.5,0.1c0.3,0,0.5-0.1,0.5-0.2c0-0.1-0.1-0.2-0.2-0.2c-0.3,0-0.9-0.1-1.3-0.1c-0.9-0.1-1-0.7-1.1-1.6
		c-0.1-1.2-0.1-3.4-0.1-6.2v-5v-7.9c0.1-0.9-0.3-1.1-0.7-0.5c-5.8,7.5-9.8,12.3-13.9,17c-0.1,0.1-0.3,0.1-0.3-0.1
		c0-9.4,0-13.8,0.1-14.7c0.1-1,0.3-1.5,1.1-1.6c0.3-0.1,0.5-0.1,0.7-0.1c0.1,0,0.2-0.1,0.2-0.2c0-0.2-0.1-0.2-0.5-0.2
		c-0.9,0-2.6,0.1-2.8,0.1c-0.1,0-1.9-0.1-3.2-0.1c-0.3,0-0.5,0.1-0.5,0.2c0,0.1,0.1,0.2,0.2,0.2c0.3,0,0.7,0,1,0.1
		c0.9,0.2,1.2,0.7,1.2,1.6c0.1,0.9,0,1.7,0.1,6.1V94.1z M270.2,83.2c0,6.6,4.2,11.5,12.8,11.5c1.8,0,4-0.2,5.1-0.7
		c0.5-0.2,0.6-0.3,0.7-0.8c0.3-1,0.6-3.4,0.6-3.6c0-0.2-0.1-0.4-0.2-0.4c-0.2,0-0.2,0.1-0.3,0.4c-0.1,0.5-0.5,1.8-1.1,2.4
		c-1.1,1.2-2.8,1.4-5,1.4c-6.1,0-10.3-5-10.3-10.4c0-5,1.8-9.5,9.1-9.5c3.6,0,6.9,1.2,6.9,4.5c0,0.4,0,0.6,0.2,0.6
		c0.2,0,0.3-0.4,0.3-1.8c0-1.7,0.2-3,0.2-3.3c0-0.2-0.1-0.3-0.4-0.3c-1.1,0-3.6-0.8-7-0.8C273,72.4,270.2,78.6,270.2,83.2 M296.3,86
		c0,2.7,0,5-0.1,6.2c-0.1,0.8-0.3,1.4-0.8,1.6c-0.3,0.1-0.6,0.1-0.9,0.1c-0.2,0-0.2,0.1-0.2,0.2c0,0.2,0.1,0.2,0.5,0.2
		c0.9,0,2.5-0.1,2.7-0.1c0.2,0,1.9,0.1,3.3,0.1c0.3,0,0.5-0.1,0.5-0.2c0-0.1-0.1-0.2-0.2-0.2c-0.3,0-0.7-0.1-1.1-0.1
		c-0.9-0.1-1-0.7-1.1-1.6c-0.1-1.2-0.1-3.4-0.1-6.2v-2.8h0.1c1.4,1.7,7.4,8.2,8.7,9.2c1.2,1,1.9,1.6,3.4,1.7c0.6,0.1,1.2,0.1,2,0.1
		h1.5c0.5,0,0.6-0.1,0.6-0.2c0-0.1-0.2-0.2-0.4-0.2s-1-0.1-1.8-0.4c-1.4-0.6-1.9-1-4.2-3.2c-1.2-1.1-7.1-7.2-7.8-8
		c0.6-0.7,5.6-5.5,6.3-6.2c1.3-1.2,1.9-1.9,3.1-2.4c0.6-0.3,1.2-0.4,1.6-0.4c0.2,0,0.3-0.1,0.3-0.2c0-0.1-0.1-0.2-0.4-0.2
		c-0.7,0-2.6,0.1-2.7,0.1c-0.7,0-1.6-0.1-2.1-0.1c-0.2,0-0.3,0.1-0.3,0.2c0,0.1,0.1,0.2,0.3,0.2c0.2,0.1,0.4,0.3,0.4,0.6
		c0,0.5-0.7,1.2-1.5,2.1c-1,1.1-6.2,6.3-6.7,6.9h-0.1V81c0-4.4,0-5.2,0.1-6.1c0.1-1,0.3-1.5,1.1-1.6c0.3-0.1,0.5-0.1,0.7-0.1
		c0.1,0,0.2-0.1,0.2-0.2c0-0.2-0.1-0.2-0.5-0.2c-0.9,0-2.5,0.1-2.8,0.1c-0.2,0-1.8-0.1-3.1-0.1c-0.3,0-0.5,0.1-0.5,0.2
		c0,0.1,0.1,0.2,0.2,0.2c0.3,0,0.7,0,1,0.1c0.9,0.2,1.2,0.7,1.2,1.6c0.1,0.9,0.1,1.7,0.1,6.1V86z M336.9,83
		c0,6.4-4.5,11.6-11.4,11.6c-7.8,0-11-6.1-11-11.2c0-4.6,3.4-11.1,11.2-11.1C332.1,72.4,336.9,76.4,336.9,83 M334.2,83.8
		c0-6.8-4.2-10.5-8.7-10.5c-4.8,0-8.3,3.1-8.3,9.4c0,6.6,4,10.9,9.1,10.9C328.9,93.6,334.2,92.1,334.2,83.8 M343,94.1
		c-0.1,0.9,0.3,1.1,0.7,0.5l0.3-0.5c0.9-1.1,1.6-2.1,2.4-3c3.5-4.6,7.3-9.1,11-13.5c0.3-0.3,0.4-0.1,0.4,0.2V86c0,2.7,0,5-0.1,6.2
		c-0.1,0.8-0.3,1.4-0.8,1.6c-0.3,0.1-0.6,0.1-0.9,0.1c-0.2,0-0.2,0.1-0.2,0.2c0,0.2,0.1,0.2,0.5,0.2c0.9,0,2.6-0.1,2.8-0.1
		c0.1,0,1.9,0.1,3.5,0.1c0.3,0,0.5-0.1,0.5-0.2c0-0.1-0.1-0.2-0.2-0.2c-0.3,0-0.9-0.1-1.3-0.1c-0.9-0.1-1-0.7-1.1-1.6
		c-0.1-1.2-0.1-3.4-0.1-6.2v-5v-7.9c0.1-0.9-0.3-1.1-0.7-0.5c-5.8,7.5-9.8,12.3-13.9,17c-0.1,0.1-0.3,0.1-0.3-0.1
		c0-9.4,0-13.8,0.1-14.7c0.1-1,0.3-1.5,1.1-1.6c0.3-0.1,0.5-0.1,0.7-0.1c0.1,0,0.2-0.1,0.2-0.2c0-0.2-0.1-0.2-0.5-0.2
		c-0.9,0-2.6,0.1-2.8,0.1c-0.1,0-1.9-0.1-3.2-0.1c-0.3,0-0.5,0.1-0.5,0.2c0,0.1,0.1,0.2,0.2,0.2c0.3,0,0.7,0,1,0.1
		c0.9,0.2,1.2,0.7,1.2,1.6c0.1,0.9,0,1.7,0.1,6.1V94.1z M389.4,92.1L389.4,92.1c0.1,1.1-0.1,2.3,1.1,2.5c0.4,0.1,1,0.1,1.3,0.1
		c0.2,0,0.2,0.1,0.2,0.2c0,0.1-0.1,0.2-0.5,0.2c-1.6,0-3.4-0.1-3.5-0.1c-0.1,0-1.9,0.1-2.8,0.1c-0.3,0-0.5-0.1-0.5-0.2
		c0-0.1,0.1-0.2,0.2-0.2c0.3,0,0.6-0.1,0.9-0.1c0.9-0.2,0.7-1.4,0.9-2.4l-0.1-0.1c-6.7-0.5-9.8-4.9-9.8-8.8c0-3.5,3-8.4,9.8-8.9
		l0.1-0.1c-0.1-0.8-0.3-1.7-0.9-1.8c-0.3-0.1-0.7-0.1-0.9-0.1c-0.1,0-0.2-0.1-0.2-0.2c0-0.2,0.1-0.2,0.5-0.2c0.9,0,2.7,0.1,2.9,0.1
		c0.1,0,1.9-0.1,2.8-0.1c0.3,0,0.5,0.1,0.5,0.2c0,0.1-0.1,0.2-0.2,0.2c-0.2,0-0.4,0-0.7,0.1c-0.7,0.1-0.9,1-1,1.9l0.1,0.1
		c5.6,0.4,9.6,3.6,9.6,8.4C399,87.6,395.2,91.5,389.4,92.1 M386.8,76.3l-0.1-0.9c0-0.2-0.1-0.2-0.2-0.2c-4.1,0.5-7.1,3.2-7.1,7.8
		c0,4.6,3.1,7.4,7.1,8.3c0.1,0.1,0.3,0,0.3-0.3c0.1-1.3,0.1-2.9,0.1-5v-5V76.3z M389.4,91.3c2.2-0.1,7.1-1.7,7.1-7.7
		c0-4.5-2.9-7.3-6.4-8.2c-0.2-0.1-0.4-0.1-0.6-0.1c-0.2,0.1-0.3,0.1-0.3,0.9l0,0.5V81v5c0,2.1,0,3.9,0.1,5.2
		C389.2,91.2,389.3,91.3,389.4,91.3 M408.2,74.2c0-0.2,0.1-0.3,0.2-0.3c0.6,0,3.1,0.1,3.3,0.1c1.7,0,2.4,0.6,2.5,0.9
		c0.2,0.4,0.3,0.9,0.3,1.1c0,0.2,0.1,0.3,0.2,0.3c0.1,0,0.2-0.1,0.2-0.3c0.1-0.3,0.1-1.6,0.1-1.9c0.1-0.8,0.2-1.1,0.2-1.3
		c0-0.1-0.1-0.3-0.2-0.3c-0.1,0-0.2,0.1-0.4,0.2c-0.1,0-0.8,0.1-1.2,0.1c-0.5,0-3.4,0.1-6.4,0.1c-0.1,0-1.9-0.1-3.2-0.1
		c-0.3,0-0.5,0.1-0.5,0.2c0,0.1,0.1,0.2,0.2,0.2c0.3,0,0.7,0,1,0.1c0.9,0.2,1.1,0.6,1.2,1.3c0.1,0.5,0.1,1.7,0.1,6.5v5
		c0,3.5-0.1,5.8-0.2,6.5c-0.2,0.8-0.3,1.1-0.8,1.2c-0.3,0.1-0.6,0.1-0.9,0.1c-0.2,0-0.2,0.1-0.2,0.2c0,0.2,0.1,0.2,0.5,0.2
		c0.6,0,2.1-0.1,2.8-0.1c0.8,0,2.7,0.2,7,0.2c1.1,0,1.3,0,1.5-0.7c0.1-0.6,0.4-2.5,0.4-2.8c0-0.2,0-0.4-0.2-0.4
		c-0.1,0-0.2,0.1-0.3,0.4c-0.2,1.2-0.5,1.7-1.3,2.1c-0.7,0.3-2,0.3-2.7,0.3c-2.8,0-3.3-0.5-3.3-2.3v-7.4c0-0.1,0.1-0.2,0.2-0.2
		c0.5,0,3.3,0.1,4.1,0.1c1.1,0.1,1.4,0.6,1.5,1c0.1,0.4,0.1,0.7,0.1,0.9c0,0.1,0.1,0.3,0.2,0.3c0.2,0,0.2-0.2,0.2-0.5
		c0-1.4,0.3-3.3,0.3-3.4c0-0.2-0.1-0.2-0.1-0.2c-0.1,0-0.2,0.1-0.4,0.4c-0.3,0.3-0.7,0.3-1.3,0.4c-0.7,0.1-4.2,0.1-4.5,0.1
		c-0.1,0-0.2-0.1-0.2-0.3V74.2z M442.8,93c-0.2,0.9-0.6,3-0.7,3.3c-0.1,0.3-0.1,0.4-0.3,0.4c-0.1,0-0.2-0.1-0.2-0.5v-0.3
		c0-0.9-0.1-1.8-2.4-1.8l-4.3,0h-7.6l-4.9,0c-1.9,0-2.1,0.3-2.3,1c-0.1,0.5-0.1,1-0.1,1.3c0,0.2-0.1,0.3-0.2,0.3
		c-0.1,0-0.2-0.1-0.2-0.3c-0.1-0.3-0.6-3.1-0.6-3.3c0-0.2,0-0.5,0.1-0.5c0.2,0,0.7,0.4,1.5,0.3c1.5,0,2-0.7,2.5-2l7-17.8
		c0.3-0.9,0.5-1.1,0.7-1.1c0.2,0,0.3,0.1,0.7,1c0.5,1.1,5.2,12.9,6.9,17.2c0.3,0.7,0.7,1.3,1.1,1.9c0.7,0.6,1.5,0.7,1.8,0.7
		c0.9-0.1,1.4-0.2,1.5-0.2C442.9,92.7,442.8,92.9,442.8,93 M436.7,93C436.7,92.9,436.7,92.9,436.7,93l-6.3-16.2
		c-0.1-0.4-0.5-0.4-0.6,0l-5,14.2c-0.3,0.7-0.4,1.4-0.4,1.9V93C427.5,93.2,431.8,93.1,436.7,93 M450.4,74.2c0-0.2,0.1-0.3,0.2-0.3
		c0.6,0,3.1,0.1,3.3,0.1c1.7,0,2.4,0.6,2.5,0.9c0.2,0.4,0.3,0.9,0.3,1.1c0,0.2,0.1,0.3,0.2,0.3c0.1,0,0.2-0.1,0.2-0.3
		c0.1-0.3,0.1-1.6,0.1-1.9c0.1-0.8,0.2-1.1,0.2-1.3c0-0.1-0.1-0.3-0.2-0.3c-0.1,0-0.2,0.1-0.4,0.2c-0.1,0-0.8,0.1-1.3,0.1
		c-0.5,0-3.4,0.1-6.4,0.1c-0.1,0-1.9-0.1-3.2-0.1c-0.3,0-0.5,0.1-0.5,0.2c0,0.1,0.1,0.2,0.2,0.2c0.3,0,0.7,0,1,0.1
		c0.9,0.2,1.1,0.6,1.2,1.3C448,75,448,76.2,448,81v5c0,3.5-0.1,5.8-0.2,6.5c-0.2,0.8-0.3,1.1-0.8,1.2c-0.3,0.1-0.6,0.1-0.9,0.1
		c-0.2,0-0.2,0.1-0.2,0.2c0,0.2,0.1,0.2,0.5,0.2c0.6,0,2.1-0.1,2.8-0.1c0.8,0,2.7,0.2,7,0.2c1.1,0,1.3,0,1.5-0.7
		c0.1-0.6,0.4-2.5,0.4-2.8c0-0.2,0-0.4-0.2-0.4c-0.1,0-0.2,0.1-0.3,0.4c-0.2,1.2-0.5,1.7-1.3,2.1c-0.7,0.3-2,0.3-2.7,0.3
		c-2.8,0-3.3-0.5-3.3-2.3v-7.4c0-0.1,0.1-0.2,0.2-0.2c0.5,0,3.3,0.1,4.1,0.1c1.1,0.1,1.4,0.6,1.5,1c0.1,0.4,0.1,0.7,0.1,0.9
		c0,0.1,0.1,0.3,0.2,0.3c0.2,0,0.2-0.2,0.2-0.5c0-1.4,0.3-3.3,0.3-3.4c0-0.2-0.1-0.2-0.1-0.2c-0.1,0-0.2,0.1-0.4,0.4
		c-0.3,0.3-0.7,0.3-1.3,0.4c-0.7,0.1-4.2,0.1-4.5,0.1c-0.1,0-0.2-0.1-0.2-0.3V74.2z M467,86c0,2.7,0,5-0.1,6.2
		c-0.1,0.8-0.3,1.4-0.8,1.6c-0.3,0.1-0.6,0.1-0.9,0.1c-0.2,0-0.2,0.1-0.2,0.2c0,0.2,0.1,0.2,0.5,0.2c0.9,0,2.6-0.1,2.7-0.1
		c0.1,0,1.9,0.1,3.5,0.1c0.3,0,0.5-0.1,0.5-0.2c0-0.1-0.1-0.2-0.2-0.2c-0.3,0-0.9-0.1-1.3-0.1c-0.9-0.1-1-0.7-1.1-1.6
		c-0.1-1.2-0.1-3.4-0.1-6.2V74.3c0-0.3,0.1-0.5,0.2-0.5c0.3-0.1,0.7-0.2,1.2-0.2c0.7,0,2.4-0.1,3.9,1.4c1.5,1.5,1.6,3.4,1.6,4.4
		c0,2.6-2.2,4.6-4.9,4.6c-0.6,0-0.8,0-0.8,0.3c0,0.1,0.2,0.2,0.3,0.2c0.1,0,0.5,0,0.6,0c4,0,7-2.7,7-6.8c0-1.5-0.8-2.8-1.4-3.4
		c-0.5-0.4-1.7-1.6-5.3-1.6c-1.3,0-3,0.1-3.6,0.1c-0.2,0-1.9-0.1-3.2-0.1c-0.3,0-0.5,0.1-0.5,0.2c0,0.1,0.1,0.2,0.2,0.2
		c0.3,0,0.7,0,1,0.1c0.9,0.2,1.2,0.7,1.2,1.6c0.1,0.9,0.1,1.7,0.1,6.1V86z M500.3,94.1c0,0.2-0.3,0.2-0.6,0.2c-0.4,0-2.5,0-4.5-0.1
		c-0.5,0-0.9,0-0.9-0.2c0-0.1,0.1-0.2,0.2-0.2c0.1,0,0.2-0.1,0.2-0.4c0-0.1,0-0.3-0.1-0.4l-2.6-7c-0.1-0.1-0.1-0.2-0.3-0.2h-6.1
		c-0.1,0-0.2,0.1-0.3,0.2l-1.7,5c-0.3,0.7-0.4,1.4-0.4,1.9c0,0.6,0.6,0.8,1.1,0.8h0.3c0.2,0,0.3,0.1,0.3,0.2c0,0.2-0.2,0.2-0.4,0.2
		c-0.7,0-1.9-0.1-2.2-0.1c-0.3,0-1.9,0.1-3.2,0.1c-0.4,0-0.5-0.1-0.5-0.2c0-0.1,0.1-0.2,0.3-0.2c0.2,0,0.6,0,0.8-0.1
		c1.3-0.2,1.9-1.3,2.4-2.7l6.5-17.7c0.3-0.9,0.5-1.1,0.6-1.1c0.2,0,0.3,0.1,0.6,1c0.4,1.1,4.9,12.8,6.6,17.2c1,2.5,1.8,3,2.4,3.2
		c0.4,0.1,0.9,0.2,1.1,0.2C500.2,93.9,500.3,93.9,500.3,94.1 M491.6,84.7l-2.7-7.7c-0.1-0.2-0.1-0.3-0.2-0.3c-0.1,0-0.1,0.1-0.2,0.3
		l-2.5,7.7c-0.1,0.1,0,0.2,0.1,0.2h5.4C491.6,84.9,491.6,84.8,491.6,84.7 M519,92.2c-0.1,0.4-0.1,0.7-0.2,1c-3.9,0.2-7.8,0.3-11.7,0
		c-0.1-0.3-0.2-0.6-0.2-1c-0.1-1.2-0.1-3.4-0.1-6.2c0-9.5,0-10.2,0.1-11.2c0.1-1,0.3-1.5,1.1-1.6c0.3-0.1,0.5-0.1,0.7-0.1
		c0.1,0,0.2-0.1,0.2-0.2c0-0.2-0.1-0.2-0.5-0.2c-0.9,0-2.6,0.1-2.8,0.1c-0.1,0-1.9-0.1-3.2-0.1c-0.3,0-0.5,0.1-0.5,0.2
		c0,0.1,0.1,0.2,0.2,0.2c0.3,0,0.7,0,1,0.1c0.9,0.2,1.2,0.7,1.2,1.6c0.1,0.9,0.1,1.7,0.1,6.1v5c0,2.7,0,5-0.1,6.2
		c-0.1,0.8-0.3,1.4-0.8,1.6c-0.3,0.1-0.6,0.1-0.9,0.1c-0.2,0-0.2,0.1-0.2,0.2c0,0.2,0.1,0.2,0.5,0.2c0.9,0,2.6-0.1,2.8-0.1
		c0.1,0,1.2,0.1,2.4,0.1h10.4c0.9,0,1.9-0.1,2-0.1h1.4c2.3,0,2.2,1,2.2,1.9v0.3c0,0.4,0.1,0.5,0.2,0.5c0.2,0,0.2-0.1,0.3-0.4
		c0.1-0.3,0.5-2.4,0.6-3.3c0-0.2,0.1-0.3-0.1-0.3c-0.2,0-0.6,0.2-1.5,0.2c-0.4,0-1.9,0.5-1.9-1.8c-0.1-1.3-0.1-3.1-0.1-5.3v-5
		c0-4.4,0-5.2,0.1-6.1c0-1,0.3-1.5,1-1.6c0.3-0.1,0.5-0.1,0.7-0.1c0.1,0,0.2-0.1,0.2-0.2c0-0.2-0.1-0.2-0.5-0.2
		c-0.9,0-2.6,0.1-2.8,0.1c-0.1,0-1.9-0.1-3.2-0.1c-0.3,0-0.5,0.1-0.5,0.2c0,0.1,0.1,0.2,0.2,0.2c0.3,0,0.7,0,1,0.1
		c0.9,0.2,1.2,0.7,1.2,1.6c0.1,0.9,0.1,1.7,0.1,6.1v5C519.2,88.8,519.2,91,519,92.2 M531.7,94.1c-0.1,0.9,0.3,1.1,0.7,0.5l0.3-0.5
		l2.4-3c3.5-4.6,7.3-9.1,11-13.5c0.3-0.3,0.4-0.1,0.4,0.2V86c0,2.7,0,5-0.1,6.2c-0.1,0.8-0.3,1.4-0.8,1.6c-0.3,0.1-0.6,0.1-0.9,0.1
		c-0.2,0-0.2,0.1-0.2,0.2c0,0.2,0.1,0.2,0.5,0.2c0.9,0,2.6-0.1,2.8-0.1c0.1,0,1.9,0.1,3.5,0.1c0.3,0,0.5-0.1,0.5-0.2
		c0-0.1-0.1-0.2-0.2-0.2c-0.3,0-0.9-0.1-1.3-0.1c-0.9-0.1-1-0.7-1.1-1.6c-0.1-1.2-0.1-3.4-0.1-6.2v-5v-7.9c0.1-0.9-0.3-1.1-0.7-0.5
		c-5.8,7.5-9.8,12.3-13.9,17c-0.1,0.1-0.3,0.1-0.3-0.1c0-9.4,0-13.8,0.1-14.7c0.1-1,0.3-1.5,1.1-1.6c0.3-0.1,0.5-0.1,0.7-0.1
		c0.1,0,0.2-0.1,0.2-0.2c0-0.2-0.1-0.2-0.5-0.2c-0.8,0-2.6,0.1-2.8,0.1c-0.1,0-1.9-0.1-3.2-0.1c-0.3,0-0.5,0.1-0.5,0.2
		c0,0.1,0.1,0.2,0.2,0.2c0.3,0,0.7,0,1,0.1c0.9,0.2,1.2,0.7,1.2,1.6c0.1,0.9,0,1.7,0.1,6.1V94.1z M559.2,94.1
		c-0.1,0.9,0.3,1.1,0.7,0.5l0.3-0.5l2.4-3c3.5-4.6,7.3-9.1,11-13.5c0.3-0.3,0.4-0.1,0.4,0.2V86c0,2.7,0,5-0.1,6.2
		c-0.1,0.8-0.3,1.4-0.8,1.6c-0.3,0.1-0.6,0.1-0.9,0.1c-0.2,0-0.2,0.1-0.2,0.2c0,0.2,0.1,0.2,0.5,0.2c0.9,0,2.6-0.1,2.8-0.1
		c0.1,0,1.9,0.1,3.5,0.1c0.3,0,0.5-0.1,0.5-0.2c0-0.1-0.1-0.2-0.2-0.2c-0.3,0-0.9-0.1-1.3-0.1c-0.9-0.1-1-0.7-1.1-1.6
		c-0.1-1.2-0.1-3.4-0.1-6.2v-5v-7.9c0.1-0.9-0.3-1.1-0.7-0.5c-5.8,7.5-9.8,12.3-13.9,17c-0.1,0.1-0.3,0.1-0.3-0.1
		c0-9.4,0-13.8,0.1-14.7c0.1-1,0.3-1.5,1.1-1.6c0.3-0.1,0.5-0.1,0.7-0.1c0.1,0,0.2-0.1,0.2-0.2c0-0.2-0.1-0.2-0.5-0.2
		c-0.9,0-2.6,0.1-2.8,0.1c-0.1,0-1.9-0.1-3.2-0.1c-0.3,0-0.5,0.1-0.5,0.2c0,0.1,0.1,0.2,0.2,0.2c0.3,0,0.7,0,1,0.1
		c0.9,0.2,1.2,0.7,1.2,1.6c0.1,0.9,0,1.7,0.1,6.1V94.1z M259.9,68c0.3-0.4,0.3-0.7,0.1-0.8c-0.2-0.1-0.4,0.1-0.8,0.5
		c-1.2,1.2-2.4,1.4-2.9,1.4c-0.3,0-1.9,0.1-2.1-1.9c-0.1-0.8,0.2-1.3-0.4-1.3c-0.8,0-1.4,1.2-1.4,2c0,1.1,1.1,2.2,3.4,2.2
		C257.3,70.1,259,69.2,259.9,68 M356.1,68c0.3-0.4,0.3-0.7,0.1-0.8c-0.2-0.1-0.4,0.1-0.8,0.5c-1.2,1.2-2.4,1.4-2.9,1.4
		c-0.3,0-1.9,0.1-2.1-1.9c-0.1-0.8,0.2-1.3-0.4-1.3c-0.8,0-1.4,1.2-1.4,2c0,1.1,1.1,2.2,3.4,2.2C353.5,70.1,355.2,69.2,356.1,68"/>
	<path clip-path="url(#SVGID_2_)" fill="#001689" d="M29.5,64l1-2.1l-0.6-0.3l-1.4,1.8l0.2,0.8L29.5,64z M34.5,64.6l0-2.1l-0.7-0.1
		l-0.5,2l0.5,0.6L34.5,64.6z M74.9,65l0.5-0.6l-0.5-2l-0.7,0.1l0,2.1L74.9,65z M80,64.1l0.2-0.8l-1.4-1.8l-0.6,0.3l1,2.1L80,64.1z
		 M83.1,60.8l-0.2-0.8l-2.1-0.9l-0.3,0.7l1.9,1.3L83.1,60.8z M25.4,51.1l0.2,0.8l2.2,0.8l0.3-0.6l-2-1.2L25.4,51.1z M27.4,55.6
		L25,55.3l-0.6,0.5l0.5,0.7l2.3-0.2L27.4,55.6z M25.9,60.1l-0.2,0.8l0.8,0.3l1.9-1.3l-0.3-0.7L25.9,60.1z M83.3,51.9l0.2-0.8
		l-0.8-0.2l-2,1.2l0.3,0.6L83.3,51.9z M108.7,52.9c0,0-1.3-0.7-2.2-0.8c-1.1-0.2-1.8-0.2-2.7-0.2c0.6-0.2,1.3-0.5,1.8-0.8
		c2.9-1.7,3.2-5.1,3.2-5.1s-1.7-0.2-2.7-0.2c-1.6,0-2.8,0.2-3.2,0.2c1.2-0.6,1.8-1,2.6-1.8c2.2-2.2,1.9-5.3,1.9-5.3
		s-0.8-0.3-2.1-0.2c-1.1,0.1-1.4,0.2-1.9,0.5c1.9-2.2,2.2-3.5,2.4-5c0.3-2.2-0.5-3.8-0.6-3.9c0,0-0.9,0.2-2.2,1.2
		c-1.4,1.1-3.4,3-3.4,3s0.5-0.6,1.1-1.8c2.5-5.1,2.2-9.1,1.6-10.3c-0.7-1.3-2.1-1.4-2.7-0.4c-0.5,0.7-1.9,3.8-3.1,6
		c-1.8,3.5-4.2,6.8-5.2,8.1c-0.5-1.2-1.1-0.3-1.1-0.3s-0.8,1.4-1.7,2.9c-0.9,1.4-1.9,2.5-2.6,3.1c-0.8-1-1.7-1.4-1.7-1.4l-0.3,0.3
		c0,0-6,6.2-7.8,8.7c-1.8,2.4-0.5,3.6,0.9,5.5c1.3,2,0.8,4.3-2,5.4c-2.4,0.9-4.1,0.1-4.7-1.1c1.8-0.7,3.5-2.5,3.5-4.9
		c0-0.4,0-0.8-0.1-1.3c-0.6-2.7-2.7-4.2-5.1-4.2c-0.8,0-1.7,0.2-2.5,0.6c-0.5,0.2-0.8,0.4-1.2,0.8c0,0-0.1,0.1-0.2,0.2
		c-1.1-2-1-3.6,0.3-6.3c1.5-2.8,4-4.1,4-4.1l0.6,0.5c0,0,0-0.2,1.2-0.8c1.2-0.6,2.5-0.4,3.5,0.7c0.9,1,0.8,2.3,0.8,2.3
		s0.8-0.7,1.1-1.6c0.3-0.9-0.1-1.6-0.1-1.6s1,0.4,2.1,0.8c1,0.4,2.8,1,4.4-0.3c1.6-1.4,1.3-3.3,1.3-3.3s-0.9,1.4-2.7,1.7
		c-1.3,0.3-2.8-0.5-3.9-1c-1.1-0.5-2.5-0.7-2.5-0.7s1.3-1.1,3.5-0.4c1.6,0.5,1.8,1.1,1.8,1.1s0.9-0.6,1.4-1.8
		c0.6-1.3,0.2-2.5-0.8-3.4c-0.9-0.9-2.9-1.4-2.9-1.4s0.3-0.5-0.3-0.7c-0.6-0.2-1.1-0.3-1.1-0.3s0.5-1.5-1.1-2.2
		c-2.5-1.1-6.5,1-10.9,1.6c-2.9,0.4-4.2-0.5-4.2-0.5s0.2,0.6,0.8,1.3c1.1,1.1,1.9,1.5,1.9,1.5s-0.9,0.1-1.6,0c-0.7-0.1-2-0.4-2-0.4
		s0.4,0.7,1.2,1.2C61.2,32.7,62,33,62,33s-1.6,0.8-3,1.2c-1.3,0.4-3.6,0.5-3.6,0.5s0.7,0.7,1.8,1.1c1.1,0.4,1.5,0.5,1.5,0.5
		s-0.9,1.2-1.9,3.1c-0.7,1.3-1.8,3.9-2.4,5.3c-0.6-1.4-1.7-4-2.4-5.3c-1-1.9-1.9-3.1-1.9-3.1s0.5,0,1.5-0.5c1.1-0.4,1.8-1.1,1.8-1.1
		s-2.2,0-3.6-0.5c-1.3-0.4-2.9-1.2-2.9-1.2s0.8-0.4,1.6-0.9c0.8-0.6,1.2-1.2,1.2-1.2s-1.3,0.3-2,0.4c-0.7,0.1-1.6,0-1.6,0
		s0.8-0.4,1.9-1.5c0.6-0.6,0.8-1.3,0.8-1.3s-1.3,0.9-4.2,0.5c-4.3-0.6-8.3-2.7-10.9-1.6c-1.5,0.7-1.1,2.2-1.1,2.2s-0.6,0.2-1.1,0.3
		c-0.7,0.2-0.3,0.7-0.3,0.7s-1.9,0.5-2.9,1.4c-1,0.9-1.3,2.1-0.8,3.4c0.5,1.2,1.4,1.8,1.4,1.8s0.2-0.6,1.8-1.1
		c2.2-0.7,3.5,0.4,3.5,0.4s-1.4,0.2-2.5,0.7c-1.1,0.5-2.5,1.2-3.9,1c-1.8-0.4-2.7-1.7-2.7-1.7s-0.3,1.9,1.3,3.3
		c1.6,1.4,3.4,0.7,4.4,0.3c1.1-0.4,2.1-0.8,2.1-0.8s-0.3,0.7-0.1,1.6c0.3,0.9,1.1,1.6,1.1,1.6s-0.1-1.3,0.8-2.3
		c1-1.1,2.2-1.3,3.5-0.7c1.2,0.6,1.2,0.8,1.2,0.8l0.6-0.5c0,0,2.5,1.3,4,4.1c1.4,2.7,1.5,4.2,0.4,6.2c0,0-0.1-0.1-0.1-0.1
		c-0.4-0.3-0.9-0.5-1.4-0.8c-0.8-0.4-1.7-0.6-2.5-0.6c-2.4,0-4.6,1.6-5.1,4.2c-0.1,0.4-0.1,0.9-0.1,1.3c0,2.5,1.7,4.3,3.6,4.9
		c-0.7,1.2-2.3,2-4.7,1.1c-2.8-1.1-3.3-3.4-2-5.4c1.3-2,2.7-3.1,0.9-5.5c-1.8-2.4-7.8-8.7-7.8-8.7l-0.3-0.3c0,0-0.8,0.4-1.7,1.4
		c-0.6-0.6-1.7-1.6-2.6-3.1c-0.9-1.5-1.7-2.9-1.7-2.9s-0.5-0.8-1.1,0.3c-1-1.2-3.4-4.5-5.2-8.1c-1.2-2.2-2.6-5.3-3.1-6
		c-0.6-1-2-0.9-2.7,0.4C6,23.6,5.7,27.6,8.2,32.7c0.6,1.2,1.1,1.8,1.1,1.8s-2-1.9-3.4-3c-1.3-1-2.2-1.2-2.2-1.2
		c-0.2,0.1-1,1.7-0.6,3.9c0.2,1.4,0.5,2.8,2.4,5c-0.5-0.3-0.9-0.4-1.9-0.5c-1.3-0.1-2.1,0.2-2.1,0.2S1,42.1,3.2,44.2
		c0.9,0.8,1.4,1.2,2.6,1.8c-0.4-0.1-1.6-0.2-3.2-0.2C1.7,45.8,0,46,0,46s0.3,3.3,3.2,5.1c0.5,0.3,1.1,0.6,1.8,0.8
		c-0.8,0-1.5,0-2.7,0.2c-0.9,0.2-2.2,0.8-2.2,0.8s1.1,3,4.1,4.1c0.5,0.2,0.8,0.4,1.4,0.4c-0.3,0-1.3,0.4-2.6,1
		c-0.9,0.4-1.8,1.3-1.8,1.3s1.5,2.7,4.2,3.2c0,0,0.2,0,0.5,0.1c-0.5,0.3-1.3,0.9-2,1.6c-0.7,0.7-1.4,2-1.4,2s2.3,2.4,5.6,2
		c-0.3,0.3-0.5,0.7-0.8,1.1c-0.7,1.2-0.9,2.7-0.9,2.7s2.5,1.4,5.3,0.5c-0.2,0.3-0.3,0.6-0.4,1c-0.2,0.9-0.3,2.8-0.3,2.8
		s3.1,0.9,5.7-1c-0.2,0.4-0.3,0.9-0.4,1.5c-0.1,0.9,0.1,2.8,0.1,2.8s3.3,0.4,5.6-2c0.1-0.1,0.1-0.1,0.2-0.2c0,0.3-0.1,0.5,0,0.8
		c0,1,0.5,2.8,0.5,2.8s3.3-0.1,5.3-2.8c0.2-0.3,0.3-0.5,0.5-0.8c0,0.4,0.1,1.2,0.4,1.9c0.3,0.8,1,1.8,1,1.8s2.7-0.8,3.7-3.6
		c0.4-1.2,0.6-2.8,0.6-4.2c0.2,0.2,0.3,0.3,0.3,0.3s0.9-0.2,1.8-1.1c-0.6,2.2-1.1,4.6-1.1,7.1c0,0.6,0,1.2,0.1,1.9
		c0.1,1.4,0.2,2.1,0.5,3.1c0,0-0.5,0.9-0.9,1.5c-0.2,0.2-0.9,0.9-0.8,2.1c0.1,0.9,1,1,1,1s-0.1,1,0.3,1.5c0.4,0.5,0.9,0.7,1.1,0.7
		c0.2,0.1,0.8,0.2,0.8,0.2s0.2,1.1,0.5,1.4c0.5,0.3,1.6,0.7,1.6,0.7c0.3,0.1,0.8,0.5,1.1,0.6c0.5,0.3,1.3,0.1,2-0.2
		c0.5-0.3,0.5-1,0.5-1.2c0.2,0.1,0.3,0.1,0.5,0.2c0.8,0.3,1.3,0.6,1.4,0.8c0.4,0.6,0.6,2,0.7,3.1c0.1,0.4,0,1.1,0.3,1.7
		c0,0,0.1,0.1,0.1,0.1C46,99,46,99,45.9,99.1c-0.8,0.3-1.7,0.7-2.7,1.4c-1,0.7-2.1,2.6-3.6,2.9c-1.3,0.3-2.2-0.3-2.4-1.1
		c-0.1-0.8-0.1-1.2-0.1-1.2s-1.8,1-1.9,2.3c-0.2,1.6,1.3,2.3,1.3,2.3s-2.3,2.2-1.6,4.2c0.6,1.7,1.1,2.4,1.2,3c0.1,0.6-0.2,1-0.2,1
		s1.2,0.1,1.5-1.5c0.2-1,0.4-1.5,0.7-1.8c0.2-0.3,0.3-0.4,0.3-0.4s-0.1,1.4,0.2,2.5c0.4,1.1,1.6,2.2,3.4,2.3
		c1.6,0.1,3.1-0.8,3.1-0.8s1.3,1.8,3.2,2.1c1.9,0.3,3.1-0.2,3.7-0.3c0,0,0.5,0.9,1,1.5c0.2,0.3,0.6,0.7,1.1,1.2l0.6,0.3
		c0,0,0.7-0.7,1.2-1.3c0.5-0.6,1.1-2,1.1-2s2.1,0.8,3.9,0.4c1.8-0.4,3.1-1.7,3.1-1.7s1.1,1.2,2.9,1.1c1.8-0.1,3.1-1.7,3.4-2.8
		c0.3-1.1,0.2-2.5,0.2-2.5s0.1,0.1,0.4,0.3c0.3,0.2,0.5,0.4,0.7,1.5c0.3,1.6,1.2,1.7,1.2,1.7s-0.1-0.8,0.2-1.6
		c0.2-0.6,0.8-1.3,1.2-2.8c0.7-2.7-1.6-3.8-1.6-3.8s1.3-0.7,1.2-2.2c-0.1-1.9-2.1-2.5-2.1-2.5s0.2,0.2,0,1c-0.1,0.8-0.9,1.6-2.4,1.2
		c-0.8-0.2-2.3-2-3.3-2.7c-1-0.7-2.4-1.3-2.9-1.6c0,0-0.1-0.1-0.2-0.1c0,0,0,0,0-0.1c0.3-0.6,0.3-1.2,0.3-1.7
		c0.1-0.9,0.3-2.1,0.6-2.8c0.2-0.4,0.8-0.7,1.5-1c0.2-0.1,0.2-0.1,0.5-0.2c0,0.2,0.1,0.9,0.5,1.2c0.7,0.4,1.4,0.5,2,0.2
		c0.3-0.2,0.9-0.5,1.1-0.6c0,0,1.2-0.3,1.6-0.7c0.4-0.3,0.5-1.4,0.5-1.4s0.6-0.1,0.8-0.2c0.2-0.1,0.7-0.3,1.1-0.7
		c0.4-0.5,0.3-1.5,0.3-1.5s0.9-0.1,1-1c0.1-1.2-0.6-1.9-0.8-2.1c-0.5-0.6-0.9-1.5-0.9-1.5c0.3-1.1,0.4-1.7,0.5-3.1
		c0.1-0.6,0.1-1.2,0.1-1.9c0-2.5-0.4-4.9-1.1-7.1c0.9,0.9,1.8,1.1,1.8,1.1s0.1-0.1,0.3-0.3c0,1.4,0.2,3,0.6,4.2
		c1,2.7,3.7,3.6,3.7,3.6s0.7-1.1,1-1.8c0.2-0.7,0.4-1.5,0.4-1.9c0.2,0.3,0.3,0.5,0.5,0.8c2,2.7,5.3,2.8,5.3,2.8s0.5-1.8,0.5-2.8
		c0-0.3,0-0.6,0-0.8c0.1,0.1,0.1,0.1,0.2,0.2c2.3,2.4,5.6,2,5.6,2s0.2-1.9,0.1-2.8c-0.1-0.7-0.2-1.2-0.4-1.5c2.7,1.9,5.7,1,5.7,1
		s0-1.9-0.3-2.8c-0.1-0.4-0.3-0.7-0.4-1c2.8,0.9,5.3-0.5,5.3-0.5s-0.2-1.5-0.9-2.7c-0.3-0.5-0.5-0.8-0.8-1.1c3.3,0.4,5.6-2,5.6-2
		s-0.7-1.3-1.4-2c-0.7-0.7-1.6-1.3-2-1.6c0.2,0,0.4-0.1,0.5-0.1c2.7-0.5,4.2-3.2,4.2-3.2s-1-0.9-1.8-1.3c-1.2-0.6-2.3-0.9-2.5-1
		c0.6-0.1,0.9-0.2,1.4-0.4C107.6,55.9,108.7,52.9,108.7,52.9 M105,46.8c1.3,0,2,0.2,2.2,0.2c-1.2,1.4-2.4,2.5-5.9,3.5
		c-4.5,1.3-7.2,1.2-8.2,1.3c2.3-1.5,2.9-2.5,2.9-2.5s0-0.2-0.9-0.5c0.8-0.2,2.3-0.6,3.4-1c0.8-0.3,1.3-0.4,2.1-0.8
		C101,47,103.6,46.8,105,46.8 M78.6,66.7c0.1,0.6,0.7,1.8,1.1,2.4c-0.1,0.3-0.2,0.8-0.4,1.3c-0.4,0.7-0.8,1-0.8,1s-1.4-0.3-2.1-1.7
		c-0.5-0.9-0.5-2-0.5-2.7c0.3-0.2,0.5-0.5,0.7-0.6c0.4-0.4,0.7-1.2,0.7-1.2s0.4,0.3,1.2,0.5C78.4,65.9,78.5,66.3,78.6,66.7
		C78.6,66.7,78.6,66.7,78.6,66.7C78.6,66.7,78.6,66.7,78.6,66.7 M79.4,66c0.6,0.2,1,0.3,1.3,0.3c0.2-0.1,0.5-0.5,0.6-0.6
		c0.4,0.4,0.6,0.9,2.5,2.1c0,0.2,0.1,0.9,0,1.6c-0.1,0.8-0.2,1.3-0.2,1.3s-1.3-0.2-2.4-1.3C79.9,67.9,79.7,66.6,79.4,66 M82,65
		c0.1-0.1,0.1-0.2,0.2-0.3c0.5-1,0.4-1.8,0.4-1.8s2.3,1.4,4.3,1.9c0.1,0.3,0.3,0.8,0.4,1.4c0.2,0.9,0.1,1.3,0.1,1.3
		s-1.2-0.1-2.9-0.8C82.7,65.9,82.3,65.3,82,65 M85.7,63.2c-0.4-0.1-1.1-0.5-1.4-0.6c1-0.4,1.6-1,1.6-1s0-0.3-0.2-0.5
		c0.7,0.1,1.3,0.3,2.6,0.2c0,0,0.3,0,0.3,0c0.2,0.2,1.1,0.6,1.7,1.2c0.7,0.7,0.9,1.3,1,1.6C90,64.1,87.9,64,85.7,63.2 M88.3,59.9
		c-1.6,0-2.4-0.2-3.2-0.3c-0.2-0.2-0.4-0.5-0.8-0.8c0.2-0.1,0.8-0.4,1.1-0.8c1.1,0.1,3.6,0.1,5.7-0.6c0.1,0,0.2-0.1,0.3-0.1
		c0.3,0.1,0.7,0.3,1.1,0.5c0.9,0.4,1.4,0.9,1.6,1.2C93.4,59.4,90.6,60,88.3,59.9 M88.9,56.6c-1.1,0.1-2.2,0.2-2.7,0
		c0,0,0.2-0.3,0.4-0.8c-0.1-0.4-0.6-0.8-1.4-1.4c-0.1,0-0.1-0.1-0.2-0.1c0.8-0.1,2.9-0.3,4.8-0.8c0.2,0,0.8,0,1.9,0.5
		c1.5,0.6,1.9,1,2.1,1.2C93,55.4,91.3,56.3,88.9,56.6 M89.6,51.9c-2.7,0.7-4.1,0.8-4.7,0.8c0.2-0.3,0.6-0.8,0.9-1.6
		c1-0.4,3.3-1.3,5-2.5c0.3,0,0.9,0,1.7,0.1c1.3,0.1,2,0.5,2.3,0.7C93.9,50.4,91.9,51.3,89.6,51.9 M104.6,39.7c1.2-0.2,1.7,0,1.9,0
		c-0.7,1.2-2.4,3.2-6.2,5.3c-3.6,2-5.7,2.7-6.6,3.1c-1-0.2-2-0.2-2-0.2c0.7-0.7,1.3-1.4,1.7-2c1.3-0.5,5.6-2.3,8.9-5.5
		c0,0,0.1-0.1,0.2-0.1C102.9,40,104,39.7,104.6,39.7 M91.5,36.9c0,0,1.7-2,3.4-4.7c1.5-2.4,3.5-6.6,4.8-9.2c0.6-1.2,1.9-0.7,1.9,1.2
		c0,2.7-2.1,7.2-3.8,9.5c-3.5,4.4-5.1,5.4-6.5,6.3C91.4,39.7,91.9,38.4,91.5,36.9 M97.3,37.3c0.8-0.8,3.9-3.1,5.9-4.9
		c0.8-0.8,1.8-1.2,1.8-1.2c0.2,1.5-0.6,3.4-1.4,4.7c-1.1,1.8-2.9,3.6-4.3,4.5c-4.1,2.9-4.4,2.9-5.1,3.3c-0.1,0-2.1-0.8-4.3,0
		c0.2-0.2,0.2-0.4,0.2-0.4S94.1,40.6,97.3,37.3 M88.2,40.2c1-1.4,1.6-2.5,1.8-2.9c0.5-1,1-0.8,1,0.2c0,1.8-0.9,3.6-2.1,5.1
		c-1.1,1.3-2.1,1.9-2.6,2.2c0.1-0.3,0.4-1.6-0.1-2.6C86.5,41.9,87.4,41.2,88.2,40.2 M89.2,44.5c0.3-0.1,0.9-0.2,1.7-0.3
		c1.3-0.2,2.2,0,2.6,0.2c-0.7,0.7-2.6,2.3-4.7,3.5c-1.9,1-3.2,1.6-3.9,1.9c-1-0.4-1.9-0.5-1.9-0.5s0.5-0.5,1.5-1.4
		C85.4,47.4,87.4,46.6,89.2,44.5 M71.5,61.2c3.4,0.7,5.7-1.1,6.6-2.5c0.8-1.4,0.7-3-0.7-5c-1.4-2-2.2-2.5,1.6-6.7
		c3.9-4.3,5.4-5.4,5.4-5.4s1.5,0.5,1.3,2.6c-0.1,1.4-2.4,3.6-3.1,4.4c-0.7,0.7-1.3,1.4-1.3,1.4s1,0,2.2,0.2c0.9,0.2,1.4,0.5,1.4,0.5
		s-0.3,1.3-0.7,1.8C83.7,53,83,53.8,83,53.8s1,0.4,1.7,1.1c0.6,0.6,1,1.1,1,1.1s-0.4,1.1-1.1,1.7c-0.7,0.6-1.8,1.1-1.8,1.1
		s1,0.6,1.5,1.4c0.4,0.5,0.5,1.1,0.5,1.1s-0.6,0.5-1.5,0.7c-0.4,0.1-0.8,0.2-1.1,0.2c0,0,0,0,0,0l0,0c-0.3,0-0.6,0-0.6,0
		s0,1.2-0.3,1.9c-0.3,0.8-1,1.2-1,1.2s-1.4-0.1-1.9-0.4c-0.7-0.4-1.4-1-1.4-1s-0.6,1.2-1,1.6c-0.5,0.5-1,0.7-1,0.7s-0.7-0.3-1.3-0.7
		c-0.4-0.2-1-0.8-1-0.8l-2.1,1.5c0,0-0.9-0.3-2.1-2.4c0,0,0-0.1-0.1-0.1c-0.9-2-1.3-3.2-1.6-4C68.2,60.4,70.5,61,71.5,61.2
		 M68.6,49.8c2.8,0.1,5,3.3,3.5,6.1c-1.5,2.8-4.4,2.5-5,1.6c-0.6-0.9-0.4-2.2,0.4-2.8c0.8-0.6,2.1,0,2.1,0l-0.1-0.1
		c0,0-1.2-1.8-3-0.2c-0.4,0.4-0.7,0.7-0.7,1.5h-3.2c0-0.4,0.1-0.5,0.1-0.9C63.3,51.9,65.8,49.7,68.6,49.8 M50.7,50.4
		c0-0.6,0.5-1.2,1.2-1.2c0.6,0,1.2,0.5,1.2,1.2c0,0.5-0.3,0.9-0.7,1.1V56h-0.9v-4.5C51,51.3,50.7,50.9,50.7,50.4 M52.7,48.5
		c-0.3-0.1-0.9-0.3-1.6-0.1c-0.7,0.2-1.2,0.8-1.4,1.5c-0.2,0-0.3-0.1-0.5-0.1c-0.5,0-1,0.1-1.6,0.7c-0.4,0.4-0.6,0.9-0.6,1.5
		c0,0.7,0.3,1.3,0.8,1.7v1.3h-0.7c-0.1-0.6-0.5-1.9-1.2-3c0.4-0.4,1.5-1.9,2.1-3.7c0.4-1.1,0.6-2.1,0.7-3.3c0.2,0.2,0.4,0.5,0.6,0.8
		c0.4,0.7,0.8,1.4,0.8,1.4l0.4,0.9l0.3-0.9c0,0,0.3-0.9,0.6-2.2c0.1-0.5,0.1-0.9,0.2-1.3c0.3,0.3,0.6,0.8,0.9,1.4
		c0.4,0.7,0.7,1.5,0.9,1.8c0.1,0.2,0.2,0.5,0.2,0.7C53.3,47.9,53,48.1,52.7,48.5 M48.1,51.9c0-0.6,0.5-1.2,1.2-1.2
		c0.6,0,1.1,0.5,1.1,1.2c0,0.5-0.3,0.9-0.7,1.1v3h-0.9v-3C48.4,52.8,48.1,52.4,48.1,51.9 M65.8,56.8l0.1,1.3l-22.9,0l0-1.3H65.8z
		 M59.1,49.8c-0.2-0.6-0.4-1.2-1.4-1.6c-1-0.4-1.8,0.1-1.8,0.1s-0.2-0.4-0.6-0.6c0.1-0.2,0.2-0.6,0.2-0.8c0.1-0.3,0.5-1.2,0.9-1.8
		c0.3-0.5,0.7-1,0.9-1.4c0,0.4,0.1,0.8,0.2,1.3c0.2,1.3,0.6,2.1,0.6,2.2l0.3,0.9l0.4-0.9c0,0,0.3-0.8,0.8-1.4
		c0.2-0.3,0.4-0.6,0.6-0.8c0.1,1.1,0.4,2.1,0.7,3.3c0.5,1.7,1.6,3.1,2,3.6c-0.8,1.2-1.1,2.4-1.2,3.1h-0.8v-1.3
		c0.5-0.4,0.8-1,0.8-1.7C61.7,50.7,60.9,49.7,59.1,49.8 M58.4,51.9c0-0.6,0.5-1.2,1.2-1.2s1.1,0.5,1.1,1.2c0,0.5-0.3,0.9-0.7,1.1v3
		h-0.9v-3C58.7,52.8,58.4,52.4,58.4,51.9 M55.9,50.3c0-0.6,0.5-1.1,1.2-1.1c0.6,0,1.1,0.5,1.1,1.1c0,0.5-0.3,0.9-0.8,1.1V56h-0.9
		v-4.6C56.2,51.1,55.9,50.8,55.9,50.3 M75.3,40.3c0,0-0.3-0.8-1.4-1.5c-1.1-0.7-1.6-0.6-1.6-0.6s0.6-0.6,1.5-0.2
		c0.9,0.4,1.2,0.7,1.4,1.3C75.4,39.9,75.3,40.3,75.3,40.3 M75.6,37.4c1,0.3,2.8,1.1,3.5,1.3c1.8,0.7,3.4-0.3,3.4-0.3
		s-0.6,1.5-2.8,1.2c-1.5-0.2-3-1-3.7-1.4c-1.1-0.6-2-0.8-2-0.8S74.9,37.2,75.6,37.4 M77.2,31.5c0,0,1.4,0.1,2.4,0.9
		c1,0.8,1.3,1.5,1.1,2.4c-0.3,1-0.7,1.2-0.7,1.2s-0.9-0.8-2.6-0.9c-0.9,0-2.9,0.2-3.8,1.1c-0.2,0.2-0.3,0-0.2-0.2
		c0.3-0.3,0.5-0.5,1-1.1c0.7-0.9,1-1.3,1.6-2C76.5,32.2,77.2,31.5,77.2,31.5 M61.7,31.9c0,0,0.9,0,1.8,0c0.8-0.1,1.7-0.2,2.7-0.2
		c1,0,2-0.3,3.7,0.4c1.7,0.7,2.6,1,2.6,1s0.7-0.6,1.1-1.1c0.4-0.5,0.6-1.2,0.6-1.2s-0.4,0.2-0.9,0.1c-0.5-0.1-1.8-0.6-3.5-0.4
		c-1.7,0.2-3.6,0.4-5.4,0.1c-1.9-0.3-2.2-0.9-2.2-0.9s0.9,0.2,4.1-0.3c3.9-0.7,7.9-2.6,9.1-1.1c0.3,0.5,0.1,1.2-0.1,1.7
		c-0.2,0.5-1.1,2.2-2,3.1c-0.7,0.7-1.3,1.3-1.8,1.7c-0.4,0.3-1.7,1.1-2.6,1.4c-0.9,0.3-1.9,0.6-2.6,0.7l2.7-4.4l-0.9,0.2
		c0,0-1.8,0.4-3.5,1.3c-0.5,0.3-1.2,0.8-1.8,1.2c0.1-0.4,0.2-0.9,0.2-1.1c0.2-0.6,0.5-1,0.6-1.1c0-0.1,0.2-0.2,0.3-0.2l0.3-0.2
		c-0.2,0-0.5-0.1-1.1-0.2C62.2,32.2,61.7,31.9,61.7,31.9 M70.3,31.2c0.6,0.1,0.7,0.1,0.7,0.1c0,0-0.1,0.4-0.1,0.4s0,0-0.6-0.2
		c-0.6-0.2-0.6-0.2-0.6-0.2S69.7,31.1,70.3,31.2 M72,32.1c0,0,0.1,0,0.2-0.2c0.3-0.3,0.3-0.5,0.3-0.5l0.5,0.1l-0.5,0.7L72,32.1z
		 M55.8,43.7c0.4-1,0.8-1.8,1.2-2.7c0.8-1.2,1.7-2,2.3-2.5c0,0.2-0.1,0.4-0.1,0.7C59,39.9,59,40.7,59,41.2c0,0.4,0,0.6,0,0.6
		l0.1,1.4l0.7-1.2c0,0,0.6-1.1,1.3-1.9c0.5-0.6,1-1,1.4-1.3c-0.2,0.5-0.3,1-0.4,1.5C62,40.8,62,41.5,62,42c0,0.8,0.1,1.4,0.1,1.4
		l0.1,0.9l0.6-0.8c0,0,1.1-1.5,1.9-2.3c0.7-0.7,1.4-1.3,2-1.8c0.6-0.4,1-0.7,1-0.7l-0.4-0.7c0,0-1.7,1-3.2,2.6
		c-0.4,0.4-0.9,1-1.3,1.5c0-0.1,0-0.2,0-0.3c0-0.5,0-1.1,0.1-1.6c0.1-0.4,0.3-1,0.4-1.5c0.2-0.5,0.3-0.9,0.3-0.9l0.4-1l-0.9,0.5
		c0,0-1.4,0.7-2.6,2.1c-0.2,0.3-0.5,0.6-0.7,0.9c0-0.4,0.1-0.7,0.1-1.1c0.2-0.9,0.4-1.6,0.4-1.6l0.2-0.9l-0.8,0.5
		c0,0-0.5,0.3-1.2,0.9c0.1-0.2,0.2-0.3,0.3-0.5c0.6-0.9,1.5-1.9,1.5-1.9s-1.2-0.4-1.5-0.4c-0.3,0-0.8-0.1-0.8-0.1s1-0.3,2-0.6
		c0.7-0.2,1.7-0.8,2.2-1c0,0.1-0.1,0.2-0.1,0.3c-0.2,0.6-0.4,2.2-0.4,2.2l-0.1,1l0.8-0.6c0,0,1.6-1.2,2.4-1.7
		c0.8-0.4,1.7-0.7,2.3-0.9c0,0,0.1,0,0.1,0l-2.6,4.3l0.8-0.1c0,0,1.9-0.2,3.6-0.9l0.4-0.2c1.4-0.5,2.4-1.4,2.4-1.4
		c0.9-0.7,1.8-1.5,2.3-2.3c1-1.5,1.9-2.8,1.9-2.8s0.2,0,0.4,0c0.1,0.1,0.3,0.2,0.3,0.2s-0.6,0.6-1,1.1c-0.4,0.5-1.5,1.9-2.2,3
		c-0.8,1.1-2,2.6-2.7,3c-0.8,0.5-1.3,0.9-1.3,0.9l-0.8,0.1c0,0-2,0.6-4.2,3.8c-2.1,3.3-1.8,5.9-1.2,7.2c0.1,0.2,0.4,0.7,0.6,1
		c-0.2,0.2-0.4,0.4-0.6,0.6c-0.1-0.2-0.3-0.4-0.5-0.7c-0.4-0.7-1-1.6-1.3-2.5c-0.4-1.4-0.6-2.5-0.8-4L60.8,43l-0.6,0.7
		c0,0-0.7,0.8-1.3,1.7c-0.2,0.2-0.3,0.5-0.4,0.7c-0.1-0.3-0.2-0.7-0.2-1.1c-0.2-1.2-0.3-2.1-0.3-2.1l0-0.9l-0.6,0.6
		c0,0-0.9,0.9-1.6,2.2c-0.2,0.3-0.3,0.5-0.5,0.8C55.4,44.9,55.6,44.3,55.8,43.7 M54.5,48.6c0.6,0,1.2,0.5,1.2,1.2
		c0,0.5-0.3,0.9-0.7,1.1V56H54v-5.2c-0.4-0.2-0.7-0.6-0.7-1C53.3,49.2,53.8,48.6,54.5,48.6 M33.7,28.4c1.1-1.5,5.2,0.4,9,1.1
		c3.2,0.5,4.1,0.3,4.1,0.3s-0.4,0.6-2.2,0.9s-3.8,0.1-5.5-0.1c-1.7-0.3-3,0.3-3.5,0.4c-0.5,0.1-0.9-0.1-0.9-0.1s0.2,0.6,0.6,1.2
		c0.4,0.5,1.1,1.1,1.1,1.1s1-0.3,2.7-1c1.7-0.7,2.7-0.4,3.7-0.4c1,0,1.9,0.1,2.7,0.2c0.9,0.1,1.8,0,1.8,0s-0.5,0.3-1.3,0.5
		c-0.5,0.1-0.9,0.2-1.1,0.2l0.3,0.2c0.1,0.1,0.2,0.2,0.3,0.2c0.1,0.1,0.4,0.6,0.6,1.1c0.1,0.2,0.2,0.7,0.2,1.1
		c-0.5-0.4-1.2-0.9-1.7-1.2c-1.8-0.9-3.5-1.3-3.5-1.3l-0.9-0.2l2.7,4.4c-0.7-0.2-1.7-0.4-2.6-0.7c-0.9-0.3-2.2-1.1-2.6-1.4
		c-0.5-0.4-1.1-1-1.8-1.7c-0.9-0.9-1.8-2.6-2-3.1C33.6,29.6,33.3,28.9,33.7,28.4 M39.1,31.2c0,0,0.1,0-0.5,0.2
		c-0.6,0.2-0.6,0.2-0.6,0.2s-0.1-0.4-0.1-0.4c0.1,0,0.2-0.1,0.7-0.1C39.2,31.1,39.1,31.2,39.1,31.2 M36.9,32.1l-0.5,0.1l-0.5-0.7
		l0.5-0.1c0,0,0.1,0.2,0.3,0.5C36.8,32,36.9,32.1,36.9,32.1 M31.5,35.2C29.8,35.2,29,36,29,36s-0.5-0.2-0.7-1.2
		c-0.3-1,0.1-1.6,1.1-2.4c1-0.8,2.4-0.9,2.4-0.9s0.7,0.7,1.3,1.4c0.6,0.7,0.9,1.1,1.6,2c0.5,0.6,0.7,0.8,1,1.1
		c0.1,0.1,0,0.4-0.2,0.2C34.4,35.3,32.4,35.1,31.5,35.2 M32.9,38.3c-0.7,0.4-2.2,1.2-3.7,1.4c-2.2,0.3-2.8-1.2-2.8-1.2
		s1.6,0.9,3.3,0.3c0.7-0.3,2.6-1,3.6-1.3c0.6-0.2,1.5,0.1,1.5,0.1S33.9,37.7,32.9,38.3 M35,38.9c-1.1,0.7-1.4,1.5-1.4,1.5
		s-0.1-0.4,0.1-1c0.2-0.6,0.5-0.9,1.4-1.3c0.9-0.4,1.5,0.2,1.5,0.2S36.1,38.2,35,38.9 M45.5,49.7c0.6-1.2,0.9-3.9-1.2-7.2
		c-2.1-3.3-4.2-3.8-4.2-3.8l-0.8-0.1c0,0-0.5-0.4-1.3-0.9c-0.7-0.4-1.9-1.9-2.7-3c-0.7-1-1.7-2.5-2.1-3c-0.4-0.5-1-1.1-1-1.1
		s0.2-0.1,0.3-0.2c0.1-0.1,0.4,0,0.4,0s0.9,1.3,1.9,2.8c0.5,0.7,1.4,1.6,2.3,2.3h0c0,0,1,0.9,2.4,1.4l0.4,0.2
		c1.7,0.6,3.6,0.9,3.6,0.9l0.8,0.1l-2.6-4.3c0,0,0.1,0,0.1,0c0.6,0.2,1.5,0.5,2.3,0.9c0.8,0.4,2.4,1.7,2.4,1.7l0.8,0.6l-0.1-1
		c0,0-0.2-1.6-0.4-2.2c0-0.1-0.1-0.2-0.1-0.3c0.4,0.3,1.4,0.8,2.2,1c1,0.3,2,0.6,2,0.6s-0.4,0.1-0.8,0.1c-0.3,0-1.5,0.4-1.5,0.4
		s0.9,1,1.5,1.9c0.1,0.2,0.2,0.3,0.3,0.5c-0.7-0.6-1.2-0.9-1.2-0.9l-0.8-0.5l0.2,0.9c0,0,0.2,0.7,0.4,1.6c0.1,0.3,0.1,0.7,0.1,1.1
		c-0.2-0.3-0.4-0.6-0.7-0.9c-1.2-1.4-2.6-2.1-2.6-2.1l-0.9-0.5l0.4,1c0,0,0.2,0.4,0.3,0.9c0.2,0.5,0.4,1.1,0.4,1.5
		c0.1,0.6,0.1,1.2,0.1,1.6c0,0.1,0,0.2,0,0.3c-0.4-0.5-0.9-1.1-1.3-1.5c-1.5-1.5-3.2-2.6-3.2-2.6l-0.4,0.7c0,0,0.4,0.2,1,0.7
		c0.6,0.4,1.3,1,2,1.8c0.7,0.8,1.8,2.3,1.9,2.3l0.6,0.8l0.1-0.9c0,0,0.1-0.6,0.1-1.4c0-0.5,0-1.1-0.1-1.8c-0.1-0.4-0.2-1-0.4-1.5
		c0.4,0.3,0.9,0.8,1.4,1.3c0.7,0.8,1.3,1.9,1.3,1.9l0.7,1.2l0.1-1.4c0,0,0-0.2,0-0.6c0-0.5,0-1.3-0.2-2.1c0-0.2-0.1-0.4-0.1-0.7
		c0.6,0.5,1.5,1.3,2.3,2.5c0.4,0.8,0.8,1.7,1.2,2.7c0.2,0.6,0.4,1.2,0.6,1.8c-0.1-0.3-0.3-0.5-0.5-0.8c-0.8-1.3-1.6-2.2-1.6-2.2
		L50.9,42l0,0.9c0,0,0,0.9-0.3,2.1c-0.1,0.4-0.2,0.8-0.2,1.1c-0.1-0.2-0.3-0.4-0.4-0.7c-0.6-0.9-1.3-1.7-1.3-1.7L48.1,43L48,44
		c-0.1,1.6-0.3,2.6-0.8,4C47,49,46.4,49.9,46,50.5c-0.2,0.3-0.4,0.6-0.6,0.8c-0.2-0.2-0.3-0.5-0.5-0.6
		C45.1,50.3,45.4,49.9,45.5,49.7 M36.8,55.9c-1.5-2.8,0.7-6.1,3.5-6.1c2.8-0.1,5.3,2.2,5.9,5.3c0.1,0.4,0.1,0.5,0.1,0.9L43,56
		c-0.1-0.8-0.2-1.2-0.6-1.7c-1.6-1.9-3.4-0.2-3.4-0.2s-0.4,0.7-0.2,0.9c0.2,0.2,0.7,0.1,0.7,0.1s0.9-0.7,1.7-0.1
		c0.8,0.6,1,1.6,0.4,2.5C41.2,58.4,38.3,58.8,36.8,55.9 M24.4,41.6c0,0,1.5,1.2,5.4,5.4c3.9,4.3,3.1,4.7,1.6,6.7
		c-1.4,2-1.6,3.6-0.7,5c0.8,1.4,3.2,3.2,6.6,2.5c1.1-0.2,3.3-0.9,4.5-1.6c-0.2,0.8-0.6,2-1.6,4c0,0,0,0.1-0.1,0.1
		c-1.2,2.1-2.1,2.4-2.1,2.4L36,64.7c0,0-0.6,0.5-1,0.8c-0.6,0.4-1.3,0.7-1.3,0.7s-0.5-0.2-1-0.7c-0.4-0.4-1-1.6-1-1.6
		s-0.7,0.6-1.4,1c-0.6,0.3-2,0.4-2,0.4s-0.7-0.5-1-1.2c-0.3-0.7-0.3-1.9-0.3-1.9s-0.2,0-0.6,0l0,0c0,0,0,0,0,0
		c-0.3,0-0.7-0.1-1.1-0.2c-0.8-0.3-1.4-0.7-1.4-0.7s0.1-0.5,0.5-1.1c0.6-0.7,1.5-1.4,1.5-1.4s-1.1-0.6-1.8-1.1
		c-0.7-0.6-1.1-1.7-1.1-1.7s0.3-0.5,1-1.1c0.7-0.7,1.7-1.1,1.7-1.1s-0.7-0.8-1.2-1.3c-0.4-0.5-0.7-1.8-0.7-1.8s0.5-0.4,1.4-0.5
		c1.3-0.2,2.2-0.2,2.2-0.2s-0.6-0.6-1.3-1.4c-0.7-0.7-3-3-3.1-4.4C22.9,42.1,24.4,41.6,24.4,41.6 M18.9,53.3c1.9,0.5,4,0.8,4.8,0.8
		c-0.1,0.1-0.1,0.1-0.2,0.1c-0.8,0.7-1.2,1.1-1.4,1.4c0.2,0.5,0.4,0.8,0.4,0.8c-0.4,0.1-1.6,0.1-2.7,0c-2.4-0.3-4.1-1.2-4.9-1.6
		c0.2-0.2,0.6-0.7,2.1-1.2C18.2,53.3,18.7,53.3,18.9,53.3 M14,49.4c0.3-0.2,0.9-0.6,2.3-0.7c0.8-0.1,1.3-0.1,1.7-0.1
		c1.7,1.2,4.1,2.1,5,2.5c0.3,0.8,0.6,1.4,0.9,1.6c-0.6,0-2-0.1-4.7-0.8C16.9,51.3,14.9,50.4,14,49.4 M17.7,57.4
		c2.1,0.7,4.6,0.7,5.7,0.6c0.3,0.4,0.9,0.7,1.1,0.8c-0.3,0.2-0.6,0.6-0.8,0.8c-0.8,0.1-1.6,0.3-3.2,0.3c-2.3,0.1-5.1-0.6-5.8-1
		c0.2-0.2,0.6-0.8,1.6-1.2c0.5-0.2,0.8-0.4,1.1-0.5C17.5,57.3,17.6,57.4,17.7,57.4 M20.5,61.3c1.3,0.1,1.9-0.1,2.6-0.2
		c-0.2,0.2-0.2,0.5-0.2,0.5s0.6,0.7,1.6,1c-0.3,0.1-1,0.5-1.4,0.6c-2.2,0.8-4.3,0.9-5.6,0.9c0.1-0.3,0.3-0.9,1-1.6
		c0.6-0.6,1.5-1,1.7-1.2C20.1,61.3,20.5,61.3,20.5,61.3 M21.6,66.2c0.1-0.5,0.3-1.1,0.4-1.4c2-0.5,4.3-1.9,4.3-1.9s0,0.9,0.4,1.8
		c0.1,0.1,0.1,0.2,0.2,0.3c-0.4,0.3-0.7,0.9-2.4,1.6c-1.7,0.8-2.9,0.8-2.9,0.8S21.4,67.1,21.6,66.2 M25,67.7c2-1.2,2.2-1.7,2.6-2.1
		c0.1,0.1,0.4,0.5,0.6,0.6c0.3,0,0.7-0.1,1.3-0.3c-0.2,0.6-0.5,1.9-1.8,3.2c-1.1,1.1-2.4,1.3-2.4,1.3s-0.2-0.5-0.2-1.3
		C24.9,68.6,24.9,67.9,25,67.7 M30.2,66.7C30.2,66.7,30.2,66.7,30.2,66.7C30.2,66.7,30.2,66.7,30.2,66.7c0.1-0.4,0.2-0.8,0.2-1
		c0.7-0.2,1.2-0.5,1.2-0.5s0.3,0.7,0.7,1.2c0.2,0.2,0.5,0.4,0.7,0.6c0,0.6,0,1.7-0.5,2.7c-0.8,1.4-2.1,1.7-2.1,1.7s-0.4-0.3-0.8-1
		c-0.3-0.5-0.4-0.9-0.4-1.3C29.5,68.5,30,67.3,30.2,66.7 M24.3,47.8c0.9,0.9,1.5,1.4,1.5,1.4s-0.9,0.1-1.9,0.5
		c-0.7-0.3-2-0.8-3.9-1.9c-2-1.1-4-2.8-4.7-3.5c0.3-0.1,1.2-0.4,2.5-0.2c0.8,0.1,1.4,0.3,1.7,0.3C21.4,46.6,23.4,47.4,24.3,47.8
		 M18.8,37.3c0.2,0.4,0.8,1.5,1.8,2.9c0.8,1.1,1.6,1.7,2,2c-0.5,1-0.2,2.3-0.1,2.6c-0.6-0.3-1.6-0.9-2.6-2.2
		c-1.2-1.5-2.1-3.3-2.1-5.1C17.8,36.5,18.3,36.3,18.8,37.3 M7.1,24.1c0-1.9,1.3-2.4,1.9-1.2c1.3,2.6,3.3,6.8,4.8,9.2
		c1.8,2.8,3.4,4.7,3.4,4.7c-0.3,1.5,0.2,2.8,0.2,3c-1.4-0.9-3-1.9-6.5-6.3C9.2,31.3,7.1,26.8,7.1,24.1 M5.2,35.9
		c-0.7-1.2-1.6-3.2-1.4-4.7c0,0,0.9,0.4,1.8,1.2c2,1.8,5.1,4.1,5.9,4.9c3.2,3.3,7.1,5.9,7.1,5.9s0.1,0.2,0.2,0.4
		c-2.2-0.8-4.2,0-4.3,0c-0.7-0.3-1-0.3-5.1-3.3C8.1,39.4,6.3,37.7,5.2,35.9 M2.3,39.7c0.2,0,0.7-0.2,1.9,0c0.7,0.1,1.7,0.4,2.2,0.5
		c0,0,0.1,0.1,0.2,0.1c3.3,3.2,7.6,5,8.9,5.5c0.4,0.6,0.9,1.3,1.7,2c0,0-1,0-2,0.2c-0.9-0.3-3-1.1-6.6-3.1C4.7,42.9,3,40.9,2.3,39.7
		 M1.6,46.9c0.2,0,0.9-0.2,2.2-0.2c1.5,0,4,0.2,4.3,0.3c0.8,0.4,1.3,0.5,2.1,0.8c1.1,0.4,2.7,0.8,3.4,1c-0.8,0.3-0.9,0.5-0.9,0.5
		s0.6,0.9,2.9,2.5c-1-0.1-3.7,0.1-8.2-1.3C4,49.4,2.7,48.3,1.6,46.9 M1.7,53.3c0.3-0.1,0.9-0.4,1.9-0.6c1.3-0.3,2.7-0.2,3.5-0.2
		c1.8,0.6,3,0.6,4.3,0.7c2,0.1,3.8,0,5,0c0,0-0.8,0.1-1.9,0.9c-0.6,0.4-0.9,1-0.9,1c0,0.1,0.4,0.4,0.5,0.5c-0.9,0.2-3.1,0.4-7.1-0.1
		C4,55,2.4,53.8,1.7,53.3 M2.7,59.7c0.1-0.2,0.9-0.6,2.1-1.3C5.6,58,7.2,57.6,8,57.6c2,0.1,3.6,0,4.9-0.3c1.6-0.3,2.5-0.6,3-0.7
		c0,0,0.5,0.3,0.7,0.4c-0.5,0.1-1.4,0.4-2,1c-0.7,0.7-0.9,1.2-0.9,1.3c0.2,0.3,1.2,0.7,1.2,0.7c-1.5,0.5-3,0.7-5.4,0.8
		C4.7,61,3.4,60.3,2.7,59.7 M4,66.3c0-0.2,0.5-1,1.5-1.9c0.6-0.5,1.6-1.2,2-1.3c3.4-0.1,5.5-0.7,7.1-1.3c1.3-0.5,1.9-0.8,2.2-1
		c1.2,0.4,2,0.5,2.3,0.5c-0.8,0.3-2.5,2.1-7.3,4C7.4,67,5.7,66.7,4,66.3 M7.7,71.5c0,0,0.2-1.4,1.7-3.3c2.4-0.5,5.4-2.2,6.7-3.2
		c0.2-0.2,0.3-0.1,0.6-0.3c0.7,0.3,2.1,0.3,2.8,0.3c-0.9,0.8-4.4,4-7.2,5.3C9.2,71.7,7.7,71.5,7.7,71.5 M16,73.8
		c-2.2,1.5-3.9,1.8-3.9,1.8s-0.1-0.6,0.1-1.3c0.2-1.2,0.5-1.9,0.5-1.9c2.6-1.2,5.2-4.1,6.2-5.5c0.2-0.3,1.1-1.4,1.5-1.9
		c0.2,0,0.4,0,0.6-0.1c-0.1,0.3-0.3,0.8-0.4,1.6c-0.1,1,0,1.9,0,1.9s0.2,0.1,0.5,0.1C20.4,69.3,18.5,72.1,16,73.8 M21,76.3
		c-1.9,1.8-3.6,1.9-3.6,1.9s-0.1-0.7,0-1.4c0.1-0.6,0.3-1.8,0.4-2c2.1-1.9,3.5-4.6,4.3-6.2c0.6,0,1.4-0.1,2.1-0.4
		c0,0.3-0.1,0.9,0,1.6c0.1,0.5,0.2,1.2,0.3,1.5C24,72.4,23,74.4,21,76.3 M27,77c-1.6,2.1-3.4,2.7-3.4,2.7s-0.5-0.4-0.5-3
		c1.3-1.7,2.1-3.7,2.7-5.4c0.8-0.2,1.9-0.6,2.8-1.5c0.1,0.2,0.2,0.7,0.5,1.3c0.1,0.1,0.4,0.7,0.5,0.8C28.8,74.2,28,75.7,27,77
		 M32.3,77.4c-0.9,2.1-2.1,2.3-2.1,2.3s-0.7-1.4-0.7-3.5c0.6-1.3,0.8-2.2,1.2-3.7c0.5-0.2,1.4-0.7,2-1.5c0,0.1,0.4,1,0.7,1.5
		C33.1,74.7,32.8,76,32.3,77.4 M34.6,72.4c0,0-0.3-0.2-0.8-0.9c-0.3-0.5-0.6-1.1-0.7-1.3c0-0.1,0.2-0.6,0.3-1
		c0.2-0.8,0.3-1.5,0.3-2.2c0,0,0.4-0.2,1.1-0.6c0.7-0.4,1.1-0.8,1.1-0.8l1.3,1c0,0.4,0,1.8-0.7,3.2C35.8,71.5,34.6,72.4,34.6,72.4
		 M35.2,88.5c-0.2-0.6-0.1-0.9,0.2-1.3c0.3-0.4,0.6-1.2,0.9-1.1c0.2,0.1,0.1,0.5-0.1,0.8c-0.1,0.3-0.6,0.7-0.6,0.9
		c0.1,0.2,0.6-0.1,0.6-0.1s-0.2,0.6,0.1,0.7c0.3,0.1,0.4-0.3,0.6-0.3c0.2,0,0.5,0.7,0.9,0.8c0.4,0.1,0.9-0.5,0.9-0.5l0.9,0.2
		c0,0,0.5,0.9-0.3,1.3c-0.8,0.4-1.2,0-1.9-0.5C36.8,88.8,35.4,89.1,35.2,88.5 M39.3,87.7c-0.1-0.2,0.2-0.4,0.2-0.4s0.1-0.3,0.2,0
		c0.1,0.4,0.2,0.7,0,0.7C39.6,88.1,39.4,88,39.3,87.7 M39.1,92.9c-0.1-0.2-0.6,0.2-0.7-0.4c-0.1-0.5,0.2-0.5,0.7-0.2
		c0.5,0.3,0.7,0.4,0.6,0.7C39.5,93.2,39.2,93.2,39.1,92.9 M40.1,91.8c-0.7,0.1-1.3-0.5-2-0.6c-0.7-0.2-1.2,0.1-1.7-0.5
		c-0.5-0.6-0.1-0.9,0.1-0.9c0.2,0,0,0.3,0.2,0.4c0.2,0.1,0.4-0.2,0.4-0.1c0.1,0.1-0.1,0.4,0.1,0.5c0.2,0.1,0.2-0.3,0.4-0.2
		c0.2,0.1,0.9,0.4,1.2,0.3c0.3-0.1,0.9-0.7,1.4-0.1C40.7,91.1,40.8,91.7,40.1,91.8 M40.9,89.7c0,0,0.7-0.5,0.5,0.1
		c-0.1,0.6-0.2,1-0.6,0.4C40.3,89.8,40.9,89.7,40.9,89.7 M41.4,93.7c-0.6,0-0.9-0.1-0.8-0.8c0.1-0.7,0.1-0.3,0.7-0.4
		c0.5-0.1,1.1-0.1,1.1,0.4C42.3,93.5,42,93.7,41.4,93.7 M42.4,92.1c-0.3-0.2-0.2-0.5-0.1-0.7c0.2-0.2,0.4-0.2,0.4,0.4
		C42.8,92.4,42.7,92.4,42.4,92.1 M44.7,113.6c-1.1,0.8-2.3,0.9-3.3,0.7c-1.4-0.3-1.8-1-2.1-1.8c-0.4-1-0.2-2.7-0.2-3.4
		c0-0.2,0.6-2.2,0.7-2.7c0.1-0.3,0.2-0.6-0.1-0.6c-0.5,0.1,0.1,0.5-1.5,1.4c-1.1,0.6-1.8,1.9-1.6,3.3c0.2,1.4,0.1,1.7,0.1,1.7
		c0-0.1-0.1-0.5-0.3-1c-0.1-0.3-0.3-0.6-0.6-1.8c-0.3-1.1,0.3-1.9,0.9-2.7c0.6-0.9,1.5-1.5,1.5-1.5s-0.7-0.1-1.2-0.4
		c-0.5-0.3-0.9-0.7-0.9-1.5c0-0.6,0.6-1.1,0.6-1.1s-0.1,0.7,0.3,1.3c0.3,0.4,1.2,0.8,2.1,0.8c0.9,0,2.6-1.1,3.2-1.9
		c0.7-0.8,1.6-1.5,2.3-1.9c0.9-0.6,1.3-0.6,2.1-0.8c0.4,0,0.5,0,0.8,0c-1.6,0.8-4.2,3-5.9,6c-1.1,2.1-1.2,3.8-0.8,4.8
		c0.4,1.1,1.2,1.6,2,1.7c0.9,0.1,1.5-0.1,2.1-0.2c0.7-0.1,1.2,0.1,1.5,0.4c0.5,0.4,0.5,0.7,0.5,0.7S45.7,112.9,44.7,113.6
		 M43.3,85.3l0.9-1l1.7,2.3L45.5,87L43.3,85.3z M44.9,87.7L44.6,88l-2.3-1.6l0.3-0.3l0.1-0.2L44.9,87.7z M46.5,86.8l0.4,0.1
		l-1.7,1.9l-0.1-0.3L46.5,86.8z M47.2,87.9l2.4,2.5l-0.8,0.9l-2.6-2.2L47.2,87.9z M50.2,90.8l0.2,0.2l-0.9,1.1l-0.3-0.2L50.2,90.8z
		 M50.9,91.4l14.8,15.2l-0.3,0.3L50.1,92.3L50.9,91.4z M65.3,87.2c0.7,0,0.8,0.2,0.2,0.7c-0.6,0.5-3.5,1.3-3.5,1.3s1.2,0.1,1.9,0.2
		c0.7,0.1,0.9,0.2,0.5,0.7c-0.5,0.6-3.8,1-3.8,1s1.1,0.2,1.7,0.4c0.3,0.1,0.6,0.3-0.1,0.8c-0.7,0.5-3.1,1.1-3.1,1.1s1.5,0.5,0.6,1.1
		c-0.9,0.5-3,0.9-3,0.9s1.3,0.4,1,0.9c-0.1,0.1-0.5,0.2-1,0.4l-2.3-2.3c4.2-4.1,7.7-7.2,10.4-8.5c2.7-1.4,2.9-1.1,1.8-0.1
		c-1.1,1-3,1.5-3,1.5S64.7,87.2,65.3,87.2 M64.1,107.1l0.8,0.7c0,0-0.1,0,0,0h0c-1.6,0.3-1.6-0.3-1.6-0.3S63.6,107.6,64.1,107.1
		 M62.7,107c0,0-0.8-0.8-1.8-2.2c-0.6-0.9-1.1-1.5-1.8-2.6l4.5,4.4C63.2,107,62.7,107,62.7,107 M64.2,110.1c0.6-0.8,0.4-1.3,0.4-1.3
		s0.4,0.1,1,0c0.3,0,0.6-0.2,0.6-0.2s0.3,0.7-0.2,1.3c-0.5,0.7-0.9,0.6-1.8,0.8c-0.6,0.1-0.8,0-0.8,0S63.8,110.5,64.2,110.1
		 M54.6,97.8c0,0.1,0,0.1-0.1,0.2c-0.4,0.5-4.2,1.2-4.2,1.2l-7.5,7.1c0,0,0.1-0.8,1.3-2.1c2-2.2,5.8-5.6,8.5-8.2L54.6,97.8z
		 M43.9,110.6c0,0-0.7,0.1-1.1-0.4c-0.7-0.7-0.4-1.8-0.4-1.8s0.3,0.3,1,0.4c0.3,0,0.8,0,0.8,0s-0.2,0.4-0.2,0.8
		C43.8,110.1,43.9,110.6,43.9,110.6 M43.7,108.2c-0.4-0.1-0.7-0.3-1-0.4l1-1c0.2,0.1,0.4,0.3,0.7,0.4c0.7,0.3,1.6,0.2,1.6,0.2
		S45.5,108.5,43.7,108.2 M45.8,106.8c0,0-0.8-0.1-0.9-1l6.1-5.8c0,0,0.1,0,0.2,0c-0.1,0.3-0.3,0.6-0.4,0.9c-1,1.7-2,2.5-2.7,3.3
		C47.2,105,45.8,106.8,45.8,106.8 M47.6,115.3c-1.2-0.3-1.9-1.4-1.9-1.4s0.5-0.2,1-0.1c0.5,0,1.1,0.4,1.1,0.4s0-0.2-0.1-0.8
		c-0.1-0.4-0.1-0.9-0.7-1.6c-0.8-1-1.8-0.8-2-1.1c0,0-0.2-0.3-0.2-0.7c-0.1-0.4,0.1-0.7,0.3-1c0.2-0.2,0.9-0.4,1.4-1
		c0.5-0.5,0.8-1.1,0.8-1.1h-0.5c0,0,1.2-1.6,2.8-3.2c1.4-1.5,2.1-3.2,2.3-3.9c0.2,0,0.1,0,0.3,0c-0.1,0.5-0.4,1.5-0.8,2.3
		c-0.5,1-1.3,2.3-2.1,3.8c-1,1.9-1.7,3.5-1.6,4.9c0.2,3.2,4,4.5,4,4.5C51.7,115.3,49.8,116,47.6,115.3 M51.6,106.8
		c-0.2,0.9-0.5,2.4-0.6,4.1c-0.1,1.9,0.2,3.2,0.2,3.2s-1.8-0.9-1.9-3.1c0-1.3,0.5-2.7,1-4c0.5-1.2,2.6-7.1,2.6-7.1l0.3,0
		C53,101.5,51.8,106.1,51.6,106.8 M52.2,114.8c-0.3-0.1-0.4-3.2-0.3-4.5c0.2-2.1,0.7-4.4,1.3-7.2c0.2-1.1,0.4-2.2,0.6-3.2
		c0.2,0,0.2-0.1,0.3-0.1c0,1.9,0.1,4.7,0,7c-0.1,0-0.7,1.4-0.8,1.8c-0.1,0.4-0.6,1.7-0.7,3.4c-0.1,1.5,0.2,2.6,0.2,2.6
		S52.5,114.9,52.2,114.8 M54.4,118.1l-0.3-0.3c0,0-0.5-0.6-0.8-1c-0.5-0.6-0.6-1.1-0.6-1.1l0.6-0.2c0,0,0.3,0.6,0.7,1.2
		c0.1,0.2,0.4,0.6,0.5,0.7L54.4,118.1z M54.5,116.3l-0.1-3.1c0-1.3-0.1-4.4-0.1-5.3c0,0,1.5,1.1,1.4,4.4
		C55.7,114.5,55,115.5,54.5,116.3 M55.2,99.9c0.2,0,0.3,0.1,0.4,0.1c0,0,0,0,0,0s2.4,6.2,2.9,7.4c0.5,1.2,1,2.7,1,3.6
		c0,2.7-2.4,3.9-2.4,3.9s0.8-1.6,0.8-3.8C57.9,108.6,55.6,101.3,55.2,99.9 M61.9,112.8c-0.8,2.5-3.4,2.5-4.1,2.5
		c0,0,1.8-0.7,2.4-2.7c0.5-1.7,0.5-3.1-0.8-5.9c-1.1-2.4-2.5-5.8-2.9-6.9c0.2,0,0.2,0,0.3,0L57,100c0.3,0.5,1.1,2,2.1,3.9
		c1.2,2.5,1.8,3.4,2.3,4.5C62.2,110.3,62.2,111.7,61.9,112.8 M63.5,100.9c0.3,0.2,0.7,0.6,1.1,1c0.7,0.6,2.6,2.1,3.9,2.3
		c1.7,0.3,3-0.1,3.4-0.8c0.3-0.5,0.2-1,0.2-1s0.3,0.2,0.4,0.6c0.2,0.7-0.3,1.5-1,1.8c-0.8,0.4-1.8,0.5-2.8,0.3c-1,0-0.2,0.4,0.4,0.8
		c1.5,1,3.3,1.3,3.4,2.7c0.1,1,0,1-0.2,2.1c-0.2,0.9-0.4,0.4-0.4,0.4s-0.1-0.5-0.3-0.8c-0.6-0.9-1.4-1-1.9-1.9
		c-0.5-0.8-1.3-2.2-1.7-1.8c-0.3,0.1,2.1,3.6,0.4,5.9c-1.9,2.6-3.5,0.7-4.6,0.7c-0.5,0-1.5,0.6-1.5,0.6s0.3-1.4,0.6-1.7
		c0.4-0.3,0.8-0.4,1.6-0.5c0.8-0.1,2.3-0.3,2.5-2.4c0-0.8-0.6-1.8-0.8-2.2l0.4-0.5l-6.6-6.7c0.2,0,0.2,0,0.3,0
		C61,99.9,62.4,100.1,63.5,100.9 M65.5,91.8c-0.5,0.3-0.8,0.4-1.1,0.5c-0.2,0.1-0.4,0.2-0.6,0.2c-1.5,0.6-1.7,2.3-2,4.4
		c-0.3,2.1-0.7,1.8-1.5,1.8c-0.2,0-0.6,0-1.3,0l-1.6-1.6c0.3-0.1,0.6-0.2,0.7-0.3c0.6-0.5,0.2-1.1,0.2-1.1s1.2-0.2,2.2-0.8
		c1-0.6,0.4-1.3,0.4-1.3s1.4-0.4,2.2-1c1.1-0.7,0.3-1.5,0.3-1.5s1.1-0.1,1.7-0.8c1.2-1.3-0.2-1.5-0.2-1.5s1-0.3,1.6-0.9
		c1-0.9-0.1-1.3-0.1-1.3s1.7-1.2,1.7-2.2c0-0.8-1.1-0.7-1.8-0.5c-0.9,0.3-2.4,1-4.4,2.4c-1.7,1.2-5.3,4.3-8.2,7.1l-2.9-3l-4-4.3
		l-0.4-0.2L44,83.2l-2.9,3.3l3.2,2.3l0.1,0.3l4.6,3.6l3.1,2.8c-1.1,1.2-2,2.1-3.3,3.3c-0.3,0-0.2,0-0.3,0c-0.7,0-1.2,0.3-1.5-1.8
		c-0.3-2.1-0.4-3.8-2-4.4c-0.5-0.2-0.9-0.4-1.7-0.8c0.2-0.8-0.3-1.3-0.6-1.3c-0.1,0-0.5,0.1-0.7,0.5c-0.1-0.1-0.1,0-0.2-0.1
		c0,0,0.2-0.4,0.2-0.4c0.3-0.5,0.3-1.5-0.4-1.6c-0.5-0.1-0.7,0.1-0.7,0.1s-0.1,0.2-0.2-0.1c-0.1-0.3-0.1-0.4-0.1-0.7
		c0-0.3,0-0.7-0.2-1.4c-0.2-0.7-0.8-0.8-1.2-0.4c-0.3,0.3-0.1,0.7-0.4,1c0,0-0.1,0-0.1,0c-0.4-0.5-0.5-0.8-0.8-1.5
		c-2-4.6-0.7-10.6-0.1-13c0.6-2.5,2.7-6.9,3.7-9.1c0.5-1,1-2.2,1.3-3.9l3.5-0.9c-0.2,1.8-0.8,4-1.3,5.6c-0.7,2.5-2.1,6.3-2.5,8.2
		c-0.5,2-0.9,6.4,1,9c1.6,2.3,3.7,3.6,5.5,4.2V59.7l0.9-0.7v27.4c0.6,0.2,1.2,0.3,1.7,0.4V59.7l0.9-0.7v28c0.5,0.1,1.1,0.1,1.7,0.1
		V59.7l0.9-0.7v28.1c0.6,0,1.2-0.1,1.7-0.1V59.7l0.9-0.7v27.8c0.5-0.1,1.1-0.3,1.7-0.4V59.7L60,59v27.1c1.7-0.6,3.9-1.9,5.5-4.2
		c1.9-2.7,1.4-7.1,1-9c-0.5-2-1.8-5.8-2.5-8.2c-0.4-1.4-0.9-2.7-1.1-4.7l3.2-0.8c0,0.3,0.1,0.5,0.1,0.8l0,0.1
		c0.3,1.5,0.7,2.5,1.1,3.4c0.1,0.2,0.2,0.4,0.2,0.5c1,2.2,3,6.6,3.7,9.1c0.6,2.5,2,8.5-0.1,13c-0.1,0.2-0.2,0.4-0.3,0.6
		c-0.2,0.3-0.3,0.5-0.6,0.9c0,0-0.1,0-0.1,0c-0.4-0.3-0.1-0.7-0.4-1c-0.4-0.3-1-0.2-1.2,0.4c-0.2,0.7-0.3,1.1-0.2,1.4
		c0,0.3,0,0.4-0.1,0.7C68,89.2,67.9,89,67.9,89s-0.2-0.3-0.7-0.1c-0.7,0.2-0.7,1.1-0.4,1.6c0,0,0.2,0.4,0.2,0.4
		c-0.1,0.1-0.1,0-0.2,0.1c-0.3-0.4-0.6-0.5-0.8-0.5C65.8,90.5,65.3,91,65.5,91.8 M69.4,87.7C69.4,88,69.1,88.1,69,88
		c-0.1,0-0.1-0.3,0-0.7c0.1-0.4,0.2,0,0.2,0S69.5,87.5,69.4,87.7 M68,90.3c-0.4,0.5-0.5,0.1-0.6-0.4c-0.1-0.6,0.5-0.1,0.5-0.1
		S68.4,89.8,68,90.3 M66,91.8c0.1-0.5,0.3-0.5,0.4-0.4c0.2,0.2,0.3,0.4-0.1,0.7C66.1,92.4,66,92.4,66,91.8 M67.4,93.7
		c-0.6,0-0.9-0.2-0.9-0.8c0-0.6,0.5-0.5,1.1-0.4c0.5,0.1,0.6-0.3,0.7,0.4C68.3,93.6,68,93.7,67.4,93.7 M69.7,92.9
		c-0.1,0.2-0.5,0.3-0.6,0.1c-0.1-0.2,0.1-0.4,0.6-0.7c0.5-0.3,0.8-0.3,0.7,0.2C70.4,93.1,69.9,92.7,69.7,92.9 M72.4,90.6
		c-0.5,0.6-1.1,0.4-1.7,0.5c-0.6,0.2-1.2,0.7-2,0.6c-0.7-0.1-0.7-0.6-0.2-1.2c0.5-0.6,1.1,0,1.4,0.1c0.3,0.1,1-0.2,1.2-0.3
		c0.2-0.1,0.2,0.2,0.4,0.2c0.2-0.1,0-0.4,0.1-0.5c0.1-0.1,0.2,0.2,0.4,0.1c0.2-0.1,0.1-0.4,0.2-0.4C72.5,89.7,72.9,89.9,72.4,90.6
		 M72.5,88.3c0.3-0.1,0.2-0.7,0.2-0.7s0.5,0.3,0.6,0.1c0.1-0.2-0.4-0.6-0.6-0.9c-0.1-0.3-0.3-0.7-0.1-0.8c0.2-0.1,0.5,0.7,0.8,1.1
		c0.3,0.4,0.4,0.7,0.2,1.3c-0.2,0.6-1.6,0.2-2.3,0.7c-0.7,0.5-1.1,0.9-1.9,0.5c-0.8-0.4-0.3-1.3-0.3-1.3l0.9-0.2
		c0,0,0.5,0.6,0.9,0.5c0.4-0.1,0.7-0.8,0.9-0.8C72.1,88,72.1,88.5,72.5,88.3 M74.9,71.5c-0.4,0.7-0.8,0.9-0.8,0.9s-1.2-0.9-2-2.5
		c-0.7-1.4-0.7-2.8-0.7-3.2l1.3-1c0,0,0.4,0.3,1.1,0.8C74.6,66.9,75,67,75,67c-0.1,0.6,0.1,1.4,0.2,2.2c0.1,0.4,0.3,0.9,0.3,1
		C75.5,70.4,75.2,71,74.9,71.5 M78.6,79.7c0,0-1.3-0.2-2.1-2.3c-0.6-1.4-0.8-2.7-1-4.9c0.2-0.4,0.6-1.3,0.7-1.5
		c0.7,0.8,1.5,1.3,2,1.5c0.4,1.5,0.6,2.4,1.1,3.7C79.3,78.3,78.6,79.7,78.6,79.7 M85.2,79.7c0,0-1.8-0.6-3.4-2.7
		c-1.1-1.4-1.8-2.8-2.6-5.1c0.1-0.1,0.4-0.7,0.5-0.8c0.3-0.6,0.4-1.1,0.5-1.3c0.9,0.9,1.9,1.3,2.7,1.5c0.6,1.7,1.4,3.7,2.7,5.4
		C85.7,79.3,85.2,79.7,85.2,79.7 M91.5,78.2c0,0-1.7,0-3.6-1.9c-2-2-3-3.9-3.5-5.1c0.1-0.3,0.3-1,0.3-1.5c0.1-0.7,0-1.3,0-1.6
		c0.8,0.3,1.5,0.4,2.1,0.4c0.8,1.6,2.2,4.3,4.3,6.2c0,0.2,0.3,1.4,0.4,2C91.5,77.5,91.5,78.2,91.5,78.2 M96.7,75.6
		c0,0-1.8-0.2-3.9-1.8c-2.4-1.7-4.3-4.5-4.9-5.3c0.3,0,0.5-0.1,0.5-0.1s0.1-0.9,0-1.9c-0.1-0.7-0.3-1.3-0.4-1.6c0.2,0,0.4,0,0.6,0.1
		c0.4,0.5,1.3,1.6,1.5,1.9c1.1,1.4,3.6,4.3,6.2,5.5c0,0,0.3,0.7,0.5,1.9C96.7,75,96.7,75.6,96.7,75.6 M101.1,71.5
		c0,0-1.5,0.1-4.6-1.2c-2.8-1.2-6.3-4.4-7.2-5.3c0.7,0,2.1,0,2.8-0.3c0.3,0.2,0.4,0.2,0.6,0.3c1.3,0.9,4.3,2.6,6.7,3.2
		C101,70.1,101.1,71.5,101.1,71.5 M103.3,64.3c1,0.9,1.5,1.7,1.5,1.9c-1.7,0.4-3.4,0.7-7.8-1c-4.7-1.9-6.5-3.7-7.3-4
		c0.2,0,1-0.1,2.3-0.5c0.3,0.2,0.9,0.5,2.2,1c1.6,0.6,3.8,1.2,7.1,1.3C101.7,63.2,102.7,63.8,103.3,64.3 M104,58.5
		c1.2,0.6,2,1.1,2.1,1.3c-0.7,0.5-2,1.3-6.7,1c-2.4-0.1-4-0.3-5.4-0.8c0,0,1-0.4,1.2-0.7c-0.1-0.1-0.2-0.6-0.9-1.3
		c-0.6-0.6-1.5-0.9-2-1c0.2-0.1,0.7-0.4,0.7-0.4c0.4,0.1,1.3,0.4,3,0.7c1.3,0.2,2.9,0.4,4.9,0.3C101.6,57.6,103.2,58,104,58.5
		 M101.7,55.4c-4,0.5-6.2,0.3-7.1,0.1c0.1-0.1,0.5-0.4,0.5-0.5c0,0-0.3-0.6-0.9-1c-1.1-0.8-1.9-0.9-1.9-0.9c1.2,0,3,0.2,5,0
		c1.3-0.1,2.5-0.1,4.3-0.7c0.8,0,2.2,0,3.5,0.2c1,0.2,1.6,0.5,1.9,0.6C106.4,53.8,104.8,55,101.7,55.4 M81.5,56.3l2.3,0.2l0.5-0.7
		l-0.6-0.5l-2.3,0.3L81.5,56.3z M30.8,34.1c0,0,0-0.2,0-0.4c0-0.3,0-0.6,0-0.6s-0.7,0.6-0.9,1.3c-0.2,0.7-0.2,0.9-0.2,0.9
		s0.1-0.3,0.8-0.4c0.7-0.2,1.6-0.1,1.6-0.1l0.2-0.4c0,0-0.3-0.2-0.8-0.2C31.1,34,30.8,34.1,30.8,34.1 M78.4,34.8
		c0.7,0.2,0.8,0.4,0.8,0.4s0-0.2-0.2-0.9c-0.2-0.7-0.9-1.3-0.9-1.3s0,0.3,0,0.6c0,0.2,0,0.4,0,0.4s-0.3-0.1-0.8,0
		c-0.5,0-0.8,0.2-0.8,0.2l0.2,0.4C76.8,34.7,77.7,34.6,78.4,34.8 M58.1,13.9c0.3,0.5,0.6,1,0.8,1.4c0.2-0.2,0.4-0.3,0.5-0.5
		c0.1-0.1,0.3-0.3,0.4-0.4c-0.2-0.4-0.5-0.9-0.8-1.4C58.7,13.4,58.3,13.7,58.1,13.9 M59.2,11.9c0.4-0.4,0.6-0.6,0.8-0.9
		c-0.1-0.2-0.2-0.3-0.4-0.5c-0.2-0.2-0.3-0.3-0.4-0.5c-0.1,0.1-0.3,0.3-0.4,0.5c-0.2,0.2-0.3,0.3-0.5,0.4c0.3,0.3,0.6,0.6,0.8,0.9
		C59.1,11.8,59.1,11.8,59.2,11.9 M49.4,11.8c0.2-0.3,0.5-0.6,0.8-0.9c-0.2-0.2-0.3-0.2-0.5-0.4c-0.2-0.2-0.3-0.3-0.4-0.5
		c-0.2,0.2-0.3,0.3-0.4,0.5c-0.2,0.2-0.3,0.3-0.4,0.5c0.3,0.3,0.5,0.6,0.8,0.9C49.4,11.8,49.4,11.8,49.4,11.8 M40.1,20.1
		c-0.1-0.2-0.3-0.4-0.5-0.7l-0.7,0.8c0.2,0.2,0.3,0.5,0.5,0.7C39.6,20.7,39.9,20.3,40.1,20.1 M50.4,13.9c-0.2-0.2-0.6-0.5-1-0.9
		c-0.4,0.5-0.6,1-0.8,1.4c0.1,0.1,0.3,0.3,0.4,0.4c0.2,0.2,0.4,0.3,0.5,0.5C49.8,14.9,50,14.4,50.4,13.9 M70.2,20.4l-0.7-0.8
		c-0.2,0.3-0.4,0.5-0.5,0.7c0.2,0.2,0.5,0.6,0.7,0.8C69.9,20.8,70,20.6,70.2,20.4 M16.7,26.1c0.8-0.3,1.2-0.2,2,0
		c0.8,0.2,1.8-0.1,1.8-0.1s-0.9,0.5-1.2,1.4c-0.3,0.9,0.1,2.2,1.3,2.4c1.2,0.2,1.6,0.1,2.2,0.2C23.2,30,24,30,24,30
		s-0.5-0.6-0.9-0.9c-0.4-0.3-1-0.6-0.8-1.2c0.2-0.5,1.2-1.2,2-2c0.9-0.8,0.8-2.1,0.2-2.9c-0.7-0.9-1.2-1.6-1.9-2.6
		c-0.8-1,0-2.1,0-2.1s1.3-0.1,2.3-0.3c1.1-0.2,1.6-0.5,1.6-0.5s-0.1,1.1-0.2,2.1c-0.1,0.8-0.7,2.5,0.3,4c0.8,1.2,3.3,2,4,2.2
		c0.9,0.2,1.7,0.3,2.7,0.3l0.2,0c0.8,0.1,1.8,0.1,4.4,0.1c2.6,0,4.7-0.2,6.2-0.4c1.5-0.2,2.6-0.5,3.2-0.6c3-0.9,4.7-3,4.7-3
		s1.1,0.5,2.3,0.5c1,0,2.2-0.5,2.2-0.5s1.9,2,3.6,2.6c1.4,0.5,3,0.9,4.6,1.1l0.2,0c1.5,0.2,3.5,0.4,6.1,0.4c2.6,0,3.6,0,4.4-0.1
		l0.2,0c1-0.1,1.7-0.1,2.7-0.3c0.8-0.2,3.2-1,4-2.2c1-1.5,0.4-3.3,0.3-4c-0.2-1-0.2-2.1-0.2-2.1s0.5,0.3,1.6,0.5
		c1.1,0.2,2.3,0.3,2.3,0.3s0.8,1.1,0.1,2.1c-0.7,0.9-1.2,1.6-1.9,2.6c-0.6,0.8-0.7,2.1,0.2,2.9c0.8,0.7,1.9,1.5,2,2
		c0.2,0.6-0.4,0.9-0.8,1.2c-0.4,0.3-0.9,0.9-0.9,0.9s0.7,0,1.3-0.1c0.6-0.1,1,0,2.2-0.2c1.2-0.2,1.6-1.5,1.3-2.4
		c-0.3-0.9-1.2-1.4-1.2-1.4s1,0.3,1.8,0.1c0.8-0.2,1.2-0.3,2,0c0.8,0.3,0.8,0.7,0.8,0.7s0.4-0.9,0.3-1.8c-0.2-0.9-1.3-1.4-2.5-1.5
		c-1.2-0.1-0.5-0.9,0-1.4c0.5-0.5,1.8-1.4,1.5-3c-0.3-1.5-1.7-2-3.6-2.5c-1.8-0.5-2-2.1-3-2.8c-1.7-1.3-3.1-0.3-3.7,0.1
		c-0.6,0.4-1.4,0.4-2.1,0.6c-0.6,0.2-1.2,0.6-1.8,1.7c-1,1.7,0.4,3.5,1.1,5.3c0.7,1.8-0.2,3.2-2.3,3.7c-0.8,0.2-1.6,0.2-1.7,0.2
		c0-0.2,0.1-0.4,0.1-0.6c0.1-0.2,0.3-1.1,0.7-1.9c0.4-0.8,0.9-2.3,0.9-2.3c0.1-1.1-0.7-1.8-1-2c-0.4-0.2-1-0.4-1.8-0.6
		c-0.6-0.2-1-0.4-1.1-0.6c0.1-0.2,0.2-0.4,0.2-0.6c0-0.2-0.1-0.5-0.2-0.7h0.2l0-0.1L72.3,15l1.2,0.3l0-1.4l-1.3,0.3l0.3-1.4l-1.4,0
		l0.3,1.5l-1.3-0.4l0,1.3l1.2-0.3l-0.7,1.3l0,0.1h0.2c0,0,0,0,0,0.1c-0.1,0.2-0.2,0.4-0.2,0.6c0,0.2,0.1,0.4,0.2,0.6
		c-0.1,0.1-0.5,0.4-1.1,0.6c-0.8,0.3-1.4,0.4-1.8,0.6c-0.4,0.2-1.1,0.9-1,2c0.1,1.1,0.4,1.5,0.9,2.4c0.4,0.8,0.7,1.6,0.7,1.9
		c0,0.1,0,0.2,0.1,0.4c-0.1,0-0.6,0-0.7,0c-0.7-0.1-1.9-0.2-3-0.7l0,0c-2.3-1-4.1-2.7-4.8-3.8c-0.7-1.2-0.7-1.8-0.6-2.3
		c0.1-0.5,0.3-1.2,0.3-1.2c0.2-0.6,0.5-1.3,1-2.1c0.7-1.3,1.2-2.1,1.2-3.5c0-1.8-0.6-2.6-1.5-3.2c-0.6-0.4-1.4-0.5-2.7-0.9
		c-1-0.3-1.8-0.8-2-1c0.2-0.3,0.3-0.5,0.3-0.8c0-0.4-0.1-0.7-0.3-1c0-0.1-0.1-0.1-0.1-0.1H56l0-0.2l-1.2-1.6l1.7,0.2l-0.1-1.8
		l-1.6,0.4L55.4,0h-2.2l0.4,1.6l-1.7-0.3v1.9l1.8-0.3l-1.3,1.6l0,0.2h0.2c-0.2,0.3-0.3,0.7-0.3,1.1c0,0.3,0.1,0.7,0.3,1.1
		c-0.2,0.2-0.8,0.5-1.9,0.8c-1.3,0.4-2.1,0.4-2.9,0.9c-0.8,0.5-1.5,1.6-1.4,3.3c0.1,1.5,1.1,2.9,1.7,4.2c0.7,1.3,0.7,2,0.8,2.4
		c0.1,0.3,0,0.8,0,1.1c-0.1,0.6-0.1,0.8-0.6,1.4c-0.9,1.3-2.2,2.2-4.4,3.3c-1.3,0.6-2.5,0.9-3,0.9c-0.1,0-0.6,0-0.7,0
		c0-0.2,0.1-0.3,0.1-0.4c0-0.2,0.3-1.1,0.7-1.9c0.4-0.8,0.8-1.3,0.9-2.4c0.1-1.1-0.7-1.8-1-2c-0.4-0.2-1-0.4-1.8-0.6
		c-0.6-0.2-1-0.5-1.1-0.6c0.1-0.2,0.1-0.4,0.1-0.6c0-0.2-0.1-0.4-0.2-0.6c0,0,0-0.1,0-0.1h0.2l0-0.1l-0.7-1.3l1.2,0.3l0-1.3
		l-1.3,0.4l0.4-1.5l-1.4,0l0.3,1.3l-1.3-0.3l0,1.4l1.2-0.3l-0.8,1.2l0,0.1H36c-0.1,0.2-0.2,0.4-0.2,0.7c0,0.2,0.1,0.4,0.2,0.6
		c-0.1,0.1-0.5,0.4-1.1,0.6c-0.8,0.2-1.4,0.4-1.8,0.6c-0.4,0.2-1.1,1-1,2c0.1,1.1,0.4,1.5,0.9,2.3c0.4,0.8,0.7,1.6,0.7,1.9
		c0,0.2,0.1,0.4,0.1,0.6c-0.1,0-0.8,0-1.7-0.2c-2.2-0.5-3-1.9-2.3-3.7c0.7-1.8,2-3.6,1.1-5.3c-0.7-1.2-1.2-1.6-1.8-1.7
		c-0.6-0.2-1.5-0.2-2-0.6c-0.6-0.4-2-1.4-3.7-0.1c-0.9,0.7-1.1,2.3-3,2.8c-1.8,0.5-3.3,1-3.6,2.5c-0.3,1.6,1,2.5,1.5,3
		c0.5,0.5,1.2,1.3,0,1.4c-1.2,0.1-2.4,0.6-2.5,1.5c-0.2,0.9,0.3,1.8,0.3,1.8S15.9,26.3,16.7,26.1 M80.9,15.4c0.7-0.1,1-0.3,1.7-0.6
		c0.8-0.4,1.3-0.9,2.1-0.6c0.7,0.3,1.2,1,1.7,1.7c0.6,0.7,1.2,1.3,1.7,1.5c0.5,0.2,1.7,0.3,2.4,0.7c1,0.5,1.3,1.6,0.4,2.9
		c-0.9,1.3-1.8,1.7-1.6,2.3c0.2,0.7,1,1,1.6,1.1c1.8,0.2,1.8,1.3,1.8,1.3s-0.8-0.8-2.1-0.4c-0.5,0.2-1.5,0.3-2,0.2
		c-0.5-0.1-1-0.5-1-0.5s-0.4,0.6-0.2,1c0.3,0.4,0.6,0.6,0.9,1c0.4,0.5,0.9,1.2-0.3,1.9c-0.7,0.4-1.5,0.3-1.5,0.3s1-0.3,0.8-1.3
		c-0.2-0.7-1.2-1.4-1.9-1.9c-1.1-0.7-0.9-1.7-0.4-2.5c0.5-0.9,1.5-1.9,2.2-3.1c0.6-1.1,0.1-1.5,0.1-1.5s2.4-0.5,2.1,1.4
		c-0.1,0.7,0,1.4,0.4,0.9c0.4-0.5,0.9-1.7,0.1-2.3c-0.8-0.6-1.5-0.7-2.6-0.9c-1.1-0.2-2.9-0.2-4.4-0.8c-1.4-0.7-1.1-0.6-1.9-0.9
		c-1.4-0.5-2.2,0.3-2.2,0.3S79.8,15.6,80.9,15.4 M79.4,19.3c-0.4-1,0.3-1.8,1.2-2c0.5-0.1,1,0.2,1,0.2s0,0.5,0,0.8
		c0,0.2,0.2,1.3,0.4,2.3c0.4,1.7-0.2,2.7-1.3,3.7c-0.6,0.5-1.3,0.7-1.3,0.7s0.3-0.3,0.6-0.9c0.4-0.8,0.6-1.4,0.3-2.4
		C80,20.9,79.8,20.4,79.4,19.3 M74.8,25.2c0,0.2,0,0.3,0,0.3s-0.9-0.2-2.7-0.3c-1.7,0-2.7,0.3-2.7,0.3v-0.2c0-0.1,0-0.3,0-0.3
		s1.2-0.4,2.7-0.5c1.5,0,2.8,0.5,2.8,0.5S74.8,25.1,74.8,25.2 M69.9,23.2c0,0,0.6-0.2,1,0c0.4,0.2,0.7,0.9,0.7,0.9s-0.7,0.1-1-0.1
		C70.3,23.8,69.9,23.2,69.9,23.2 M72.1,23.8c0,0-0.3-0.5-0.3-1.1c0-0.6,0.4-1,0.4-1s0.4,0.6,0.3,1.1C72.4,23.3,72.1,23.8,72.1,23.8
		 M73.3,23.3c0.4-0.2,0.9,0.1,0.9,0.1S74,23.8,73.6,24c-0.3,0.2-1.2,0.2-1.2,0.2S72.9,23.5,73.3,23.3 M73.4,18.6l0.1,0.1
		c0,0,0,0.4-0.1,1c0,0,0.1,0.1,0.1,0.1l0.7-0.7c-0.3-0.3-0.4-0.4-0.4-0.4l0.5,0.1l0.5,0.1c0,0,0.2,0.1,0.7,0.9
		c0.2-0.2,0.3-0.4,0.3-0.4s0.2,0.1,0.3,0.3c0.1,0.2,0.1,0.3,0.1,0.3c-0.1,0.1-0.2,0.3-0.3,0.4c0.3,0.6,0.4,0.8,0.4,0.8
		c0,0-0.1,0.2-0.2,0.4C76.1,21.9,76,22,76,22s-0.2-0.6-0.5-1c-0.2,0.2-0.4,0.6-0.6,0.8c0.5,0.8,0.5,1.2,0.5,1.2c0,0,0,0.1-0.2,0.3
		c-0.2,0.3-0.3,0.6-0.3,0.6c0,0-0.1-0.8-0.6-1.7c-0.4,0.3-0.7,0.5-0.7,0.5l-0.6-0.5c0,0,0.4-0.2,0.8-0.7c-0.3-0.5-0.6-0.8-0.7-1
		c-0.2,1-0.3,1.6-0.3,1.6l-0.6-0.3c0,0,0.1-0.6,0.2-1.7c0.1-1,0.1-1.9,0.1-1.9L73.4,18.6z M72.1,16.4c0.3,0,0.6,0.3,0.6,0.6
		c0,0.3-0.3,0.6-0.6,0.6c-0.3,0-0.6-0.3-0.6-0.6C71.5,16.7,71.8,16.4,72.1,16.4 M68.6,20.9c-0.2,0.5-0.5,1-0.5,1s-0.1-0.1-0.2-0.3
		c-0.1-0.3-0.2-0.4-0.2-0.4c0,0,0.1-0.1,0.4-0.8c-0.1-0.1-0.2-0.4-0.3-0.4c0,0,0-0.1,0.1-0.3c0.1-0.2,0.3-0.3,0.3-0.3
		s0.1,0.2,0.3,0.4c0.5-0.7,0.7-0.8,0.7-0.9l0.5-0.1l0.5-0.1c0,0-0.2,0.2-0.4,0.4l0.7,0.7c0,0,0.1-0.1,0.1-0.1
		c-0.1-0.6-0.1-1.1-0.1-1.1l0.1,0l0.7-0.3c0,0,0,0.9,0.2,1.9c0.1,1.1,0.2,1.6,0.2,1.6l-0.5,0.3c0,0-0.1-0.6-0.3-1.5
		c-0.1,0.2-0.4,0.5-0.7,0.9c0.5,0.5,0.8,0.7,0.8,0.7l-0.6,0.5c0,0-0.2-0.2-0.7-0.5c-0.5,0.8-0.6,1.7-0.6,1.7c0,0-0.1-0.3-0.3-0.6
		C68.8,23,68.7,23,68.7,23c0,0,0.1-0.4,0.5-1.2C69.1,21.6,68.8,21.1,68.6,20.9 M54.2,21.6c-1,0-1.7-0.3-1.7-0.3l0.7-0.9
		c0,0,0.5,0.6,1.1,0.6c0.6,0,1-0.6,1-0.6l0.7,0.9C55.9,21.2,55.2,21.5,54.2,21.6 M54.4,19c-2.9,0.1-4.5,0.4-4.5,0.4s0-0.3,0-0.5
		c0-0.2-0.1-0.4-0.1-0.4s2.2-0.9,4.6-0.8c2.4,0.1,4.5,0.8,4.5,0.8s0,0.4,0,0.5v0.4C58.9,19.5,57.2,19,54.4,19 M54.3,11.2
		c-0.4,0-0.6-0.3-0.6-0.6c0-0.4,0.3-0.6,0.6-0.6c0.3,0,0.6,0.3,0.6,0.6C54.9,10.9,54.6,11.2,54.3,11.2 M54.7,12.2
		c0,0.2-0.2,0.4-0.4,0.4c-0.2,0-0.4-0.2-0.4-0.4c0-0.2,0.2-0.4,0.4-0.4C54.5,11.8,54.7,12,54.7,12.2 M54.3,13.2c0,0,0.6,0.8,0.6,1.7
		c0,0.9-0.6,1.8-0.6,1.8s-0.5-0.8-0.6-1.7C53.6,14.2,54.3,13.2,54.3,13.2 M54.3,9.4c-0.5,0-0.9-0.4-0.9-0.9c0-0.5,0.4-0.9,0.9-0.9
		c0.5,0,0.9,0.4,0.9,0.9C55.2,9,54.8,9.4,54.3,9.4 M50.4,15.7c0,0,1.2-0.1,1.9,0.2c0.7,0.3,1.2,1.3,1.2,1.3s-1.4,0.1-2-0.2
		C51,16.7,50.4,15.7,50.4,15.7 M55,17.2c0,0,0.7-1.1,1.3-1.4c0.7-0.3,1.7-0.3,1.7-0.3s-0.6,1.1-1.2,1.3C56.3,17.1,55,17.2,55,17.2
		 M60.1,22.5c1.7,1.4,3.9,2.5,3.9,2.5s-2.7-0.6-4.7-1.9c-1.8-1.2-2.7-2.7-2.7-2.7l1.8,0.1C58.3,20.4,58.8,21.3,60.1,22.5 M57,11.2
		c0,0,0.1-0.1,0.3-0.3c-0.1-0.1-0.2-0.3-0.2-0.3l0.1-1c0,0,0.3,0.4,0.6,0.8c0.1-0.1,0,0,0.1-0.1c0.3-0.3,0.5-0.6,0.7-0.8
		c-0.7-0.8-1.3-1.2-1.3-1.2L58,8.4l0.8,0.2c0,0,0.1,0,0.4,0.3c0.1-0.1,0.1-0.2,0.1-0.2L59.9,9c0,0,0,0.1-0.3,0.4
		c0.2,0.2,0.3,0.4,0.6,0.6c0.1,0.1,0.2,0.2,0.3,0.3c0.3-0.4,0.4-0.6,0.4-0.6l0.3,0.8c0,0-0.1,0.1-0.3,0.4c0.3,0.7,0.5,1.1,0.5,1.1
		l-0.3,0.9c0,0-0.2-0.6-0.7-1.4c-0.3,0.3-0.5,0.5-0.8,0.9c0.4,0.5,0.7,1.1,0.9,1.4c0.3-0.4,0.5-0.6,0.5-0.6l-0.5,0.9c0,0,0,0,0,0
		L60,15c0,0-0.2,0.2-0.3,0.3c-0.1,0.1-0.3,0.3-0.5,0.5c0.1,0.3,0.2,0.5,0.2,0.5l-0.3,1.1c0,0-0.7-1.7-1.3-2.7
		c-0.7-1-1.3-1.7-1.3-1.7l0.2-0.8c0,0,0.3,0.2,1,1.1c0.2-0.2,0.6-0.6,0.9-0.9c0,0,0,0,0,0c-0.4-0.4-0.7-0.8-0.9-1
		c-0.5,0.5-0.9,0.8-0.9,0.8L57,11.2z M55.9,7.5L56.6,8l0.2,0c0,0-0.1,1.4-0.4,3c-0.3,1.8-0.6,2.8-0.6,2.8l-0.6-0.3
		c0,0,0.1-0.9,0.3-2.7C55.7,9.2,55.9,7.5,55.9,7.5 M54.2,4.5c0.7,0,1.2,0.5,1.2,1.2c0,0.7-0.5,1.2-1.2,1.2c-0.7,0-1.2-0.5-1.2-1.2
		C53,5.1,53.5,4.5,54.2,4.5 M52,8l0.7-0.4c0,0,0.2,1.6,0.3,3.2c0.2,1.8,0.3,2.7,0.3,2.7l-0.6,0.3c0,0-0.3-1.1-0.6-2.8
		c-0.3-1.6-0.4-3-0.4-3L52,8z M48.8,15.4c-0.1-0.1-0.3-0.3-0.3-0.3L48,14.2c0,0,0,0,0,0l-0.5-0.9c0,0,0.2,0.2,0.5,0.6
		c0.2-0.3,0.5-0.8,0.9-1.4c-0.3-0.4-0.6-0.6-0.8-0.9c-0.5,0.8-0.7,1.4-0.7,1.4l-0.3-0.9c0,0,0.2-0.4,0.5-1.1
		c-0.2-0.3-0.3-0.4-0.3-0.4l0.3-0.8c0,0,0.1,0.2,0.4,0.6c0.1-0.1,0.2-0.2,0.3-0.4c0.2-0.3,0.4-0.5,0.5-0.6C48.6,9.1,48.6,9,48.6,9
		l0.6-0.3c0,0,0,0,0.1,0.2c0.3-0.3,0.4-0.3,0.4-0.3l0.8-0.2l0.6-0.1c0,0-0.5,0.4-1.3,1.2c0.2,0.3,0.5,0.6,0.7,0.8
		c0.1,0.1,0.1,0,0.1,0.1c0.3-0.3,0.7-0.8,0.7-0.8l0.1,1c0,0-0.1,0.1-0.2,0.3c0.2,0.2,0.3,0.3,0.3,0.3l0.2,1c0,0-0.4-0.4-0.9-0.8
		c-0.2,0.3-0.5,0.6-0.9,1c0,0,0,0,0,0c0.4,0.4,0.7,0.8,0.9,0.9c0.7-0.9,1-1.1,1-1.1l0.2,0.8c0,0-0.6,0.6-1.3,1.7
		c-0.6,1-1.3,2.7-1.3,2.7L49,16.3c0,0,0.1-0.2,0.2-0.5C49.1,15.7,48.9,15.5,48.8,15.4 M48.4,22.5c1.3-1.2,1.7-2,1.7-2l1.8-0.1
		c0,0-0.8,1.5-2.7,2.7c-2,1.3-4.7,1.9-4.7,1.9S46.7,23.9,48.4,22.5 M39.7,25.1v0.2c0,0-1-0.3-2.7-0.3c-1.7,0-2.7,0.3-2.7,0.3
		s0-0.1,0-0.3c0-0.1,0-0.2,0-0.2s1.3-0.5,2.8-0.5c1.5,0,2.7,0.5,2.7,0.5S39.7,25,39.7,25.1 M36.7,24c0,0-0.9,0-1.2-0.2
		c-0.3-0.2-0.6-0.6-0.6-0.6s0.5-0.2,0.9,0C36.2,23.3,36.7,24,36.7,24 M36.6,22.7c-0.1-0.5,0.3-1.1,0.3-1.1s0.3,0.5,0.4,1
		c0,0.6-0.3,1.1-0.3,1.1S36.7,23.2,36.6,22.7 M37.5,23.9c0,0,0.3-0.7,0.7-0.9c0.4-0.2,1,0,1,0s-0.4,0.6-0.7,0.8
		C38.1,24,37.5,23.9,37.5,23.9 M38.4,18.4L38.4,18.4c0.1,0,0.1,0.5,0,1.1c0,0,0.1,0.1,0.1,0.1l0.7-0.7c-0.2-0.3-0.4-0.4-0.4-0.4
		l0.5,0.1l0.5,0.1c0,0,0.2,0.1,0.7,0.9c0.2-0.2,0.3-0.4,0.3-0.4s0.2,0.1,0.3,0.3c0.1,0.2,0.1,0.3,0.1,0.3c-0.1,0.1-0.2,0.3-0.3,0.4
		c0.3,0.6,0.4,0.8,0.4,0.8c0,0-0.1,0.2-0.2,0.4c-0.1,0.3-0.2,0.3-0.2,0.3s-0.2-0.6-0.5-1c-0.2,0.2-0.4,0.6-0.6,0.8
		c0.5,0.8,0.5,1.2,0.5,1.2c0,0,0,0.1-0.2,0.3c-0.2,0.3-0.3,0.6-0.3,0.6s-0.1-0.8-0.6-1.7c-0.4,0.3-0.7,0.5-0.7,0.5L38.1,22
		c0,0,0.4-0.2,0.8-0.7c-0.3-0.4-0.6-0.8-0.7-0.9c-0.2,1-0.3,1.5-0.3,1.5l-0.5-0.3c0,0,0-0.5,0.2-1.6c0.1-1,0.2-1.9,0.2-1.9
		L38.4,18.4z M37,16.2c0.3,0,0.6,0.3,0.6,0.6c0,0.3-0.3,0.6-0.6,0.6c-0.3,0-0.6-0.3-0.6-0.6C36.4,16.5,36.6,16.2,37,16.2 M33.6,22.8
		c0,0,0.1-0.4,0.5-1.2c-0.2-0.2-0.4-0.6-0.6-0.8c-0.2,0.5-0.5,1-0.5,1s-0.1-0.1-0.2-0.3c-0.1-0.3-0.2-0.4-0.2-0.4
		c0,0,0.1-0.1,0.4-0.8c-0.1-0.1-0.2-0.4-0.3-0.4c0,0,0-0.1,0.1-0.3c0.1-0.2,0.4-0.3,0.4-0.3s0.1,0.2,0.3,0.4
		c0.5-0.7,0.7-0.9,0.7-0.9l0.5-0.1l0.5-0.1c0,0-0.2,0.2-0.4,0.4l0.7,0.7c0,0,0.1-0.1,0.1-0.1c-0.1-0.6-0.1-1-0.1-1l0.1-0.1l0.7-0.4
		c0,0,0,0.9,0.1,1.9c0.1,1.1,0.2,1.7,0.2,1.7l-0.6,0.3c0,0-0.1-0.6-0.3-1.6c-0.1,0.2-0.4,0.5-0.7,1c0.5,0.5,0.8,0.7,0.8,0.7
		l-0.6,0.5c0,0-0.2-0.2-0.7-0.5c-0.5,0.8-0.6,1.7-0.6,1.7s-0.1-0.3-0.3-0.6C33.7,22.8,33.6,22.8,33.6,22.8 M29.7,19.1
		c-0.4,1.1-0.7,1.6-0.9,2.5c-0.3,0.9-0.1,1.6,0.3,2.4c0.3,0.6,0.6,0.9,0.6,0.9s-0.6-0.2-1.3-0.7c-1.1-0.9-1.7-1.9-1.3-3.7
		c0.2-1.1,0.4-2.1,0.4-2.3c0-0.2,0-0.8,0-0.8s0.4-0.3,1-0.2C29.4,17.3,30.1,18.1,29.7,19.1 M18.1,24.3c0.6-0.1,1.4-0.4,1.6-1.1
		c0.2-0.6-0.7-1-1.6-2.3c-0.9-1.3-0.6-2.4,0.4-2.9c0.7-0.4,1.9-0.5,2.4-0.7c0.5-0.2,1.1-0.7,1.7-1.5c0.6-0.7,1-1.5,1.7-1.7
		c0.8-0.3,1.4,0.2,2.1,0.6c0.7,0.4,1,0.5,1.7,0.6c1.1,0.2,1.7,1.1,1.7,1.1s-0.8-0.8-2.2-0.3c-0.7,0.3-0.4,0.2-1.9,0.9
		c-1.4,0.7-3.2,0.7-4.4,0.8c-1.1,0.2-1.8,0.3-2.6,0.9c-0.8,0.6-0.3,1.8,0.1,2.3c0.4,0.5,0.5-0.2,0.4-0.9c-0.3-1.9,2.1-1.4,2.1-1.4
		s-0.5,0.4,0.1,1.5c0.7,1.2,1.6,2.2,2.2,3.1c0.5,0.9,0.7,1.8-0.4,2.5c-0.7,0.5-1.7,1.1-1.9,1.9c-0.2,1,0.8,1.3,0.8,1.3
		s-0.8,0.1-1.5-0.3c-1.2-0.7-0.6-1.4-0.2-1.9c0.3-0.4,0.7-0.6,0.9-1c0.3-0.4-0.2-1-0.2-1s-0.5,0.4-1,0.5c-0.5,0.1-1.5-0.1-2-0.2
		c-1.3-0.4-2,0.4-2,0.4S16.3,24.5,18.1,24.3 M35.1,20.2l-0.7-0.8c-0.2,0.3-0.4,0.5-0.5,0.7c0.2,0.2,0.5,0.6,0.7,0.8
		C34.8,20.6,34.9,20.4,35.1,20.2 M75.2,20.3c-0.1-0.2-0.3-0.4-0.5-0.7L74,20.4c0.2,0.2,0.3,0.5,0.5,0.7C74.7,20.9,75,20.5,75.2,20.3
		"/>
</g>
</svg>
