<?xml version="1.0" encoding="utf-8"?>
<!-- Generator: Adobe Illustrator 16.0.0, SVG Export Plug-In . SVG Version: 6.00 Build 0)  -->
<!DOCTYPE svg PUBLIC "-//W3C//DTD SVG 1.1//EN" "http://www.w3.org/Graphics/SVG/1.1/DTD/svg11.dtd">
<svg version="1.1" id="Layer_1" xmlns="http://www.w3.org/2000/svg" xmlns:xlink="http://www.w3.org/1999/xlink" x="0px" y="0px"
	 width="340.16px" height="340.16px" viewBox="0 0 340.16 340.16" enable-background="new 0 0 340.16 340.16" xml:space="preserve">
<g>
	<g>
		<path fill="#FFDB00" d="M259.307,149.475v41.313h63.398v-41.312L259.307,149.475L259.307,149.475z M307.064,186.441h-9.006
			l-9.121-23.407h-5.527v23.407h-11.004v-23.303h-8.771v-9.35l33.34,0.002l5.459,18.56l5.299-18.563h11.595L307.064,186.441z"/>
	</g>
	<path fill="#FFFFFF" d="M146.271,149.906c-11.263,0-20.396,9.129-20.396,20.396c0,11.266,9.137,20.396,20.396,20.396
		c11.269,0,20.402-9.135,20.402-20.396C166.675,159.035,157.538,149.906,146.271,149.906z M146.146,178.481
		c-4.748,0-8.601-3.754-8.601-8.392c0-4.629,3.853-8.384,8.601-8.384c4.75,0,8.602,3.754,8.602,8.384
		C154.746,174.728,150.896,178.481,146.146,178.481z"/>
	<polygon fill="#FFFFFF" points="193.992,151.477 193.992,168.293 182.039,151.477 169.941,151.477 169.941,188.789 
		182.039,188.789 182.039,171.914 193.992,188.789 206.091,188.789 206.091,151.477 	"/>
	<path fill="#FFFFFF" d="M77.701,151.561v23.095c0,2.358-2.124,4.281-4.732,4.281c-2.607,0-4.738-1.923-4.738-4.281v-23.095H56.666
		v23.918c0,0.314,0.014,0.637,0.038,0.943c0.54,7.709,7.612,13.803,16.265,13.803c8.653,0,15.725-6.094,16.268-13.803
		c0.023-0.312,0.035-0.629,0.035-0.943v-23.918H77.701z"/>
	<path fill="#FFFFFF" d="M251.096,170.455v19.729h-6.229v-5.063c-3.74,3.81-8.973,6.171-14.739,6.171
		c-11.382,0-20.604-9.16-20.604-20.463s9.229-20.465,20.604-20.465c6.604,0,12.489,3.096,16.269,7.901l-8.832,6.78
		c-1.729-2.188-4.42-3.488-7.437-3.488c-5.218,0-9.444,4.091-9.444,9.271c0,5.185,4.229,9.271,9.444,9.271
		c2.996,0,5.593-1.283,7.323-3.416h-5.041v-6.229h18.688v0.003L251.096,170.455L251.096,170.455z"/>
	<path fill="#FFFFFF" d="M47.36,195.281l-8.946-11.826c-0.822,0-9.29,0-9.29,0v5.338h-11.67v-37.312h18.498
		c4.403,0,8.28,1.346,11.396,4.461c3.119,3.123,4.733,6.992,4.733,11.403c0,3.866-1.236,7.259-3.604,10.104l8.188,10.845
		L47.36,195.281z M35.952,171.801c2.467,0,4.403-2.045,4.403-4.461c0-2.42-1.938-4.408-4.403-4.408h-6.829v8.872h6.829V171.801z"/>
	<path fill="#FFFFFF" d="M113.821,165.627c0,0-6.491-1.139-7.474-1.369c-1.254-0.265-1.914-0.834-1.914-1.899
		c0-1.104,0.891-1.781,1.995-1.801c3.166-0.054,12.521,1.555,12.521,1.555l2.4-10.687c0,0-7.424-1.274-11.427-1.489
		c-4.057-0.16-14.471-0.824-16.212,10.006c-1.742,10.816,6.988,13.298,9.28,13.949c2.29,0.646,6.873,1.396,7.151,1.484
		c1.532,0.396,1.379,1.949,1.365,2.021c-0.137,0.804-0.662,1.477-1.832,1.556c-0.281,0.021-2.177,0.146-13.212-1.308
		c-0.132,0.643-2.244,11.057-2.244,11.057s1.733,0.662,11.222,1.396c9.49,0.729,15.721-1.742,17.527-10.896
		C124.307,171.676,120.768,166.855,113.821,165.627z"/>
</g>
</svg>
