<?xml version="1.0" standalone="no"?>
<!DOCTYPE svg PUBLIC "-//W3C//DTD SVG 20010904//EN"
 "http://www.w3.org/TR/2001/REC-SVG-20010904/DTD/svg10.dtd">
<svg version="1.0" xmlns="http://www.w3.org/2000/svg"
 width="171.000000pt" height="171.000000pt" viewBox="0 0 171.000000 171.000000"
 preserveAspectRatio="xMidYMid meet">
<metadata>
Created by potrace 1.11, written by Peter Selinger 2001-2013
</metadata>
<g transform="translate(0.000000,171.000000) scale(0.100000,-0.100000)"
fill="#000000" stroke="none">
<path d="M500 1453 c0 -69 1 -73 23 -73 12 -1 87 -2 167 -3 l145 -2 0 -65 0
-65 -333 -3 -332 -2 0 -380 c0 -355 1 -380 18 -381 20 -2 66 -2 102 0 l25 1 0
305 c0 264 2 305 15 306 8 0 125 1 260 2 l245 0 0 -304 0 -304 73 -3 c69 -3
72 -2 73 20 0 13 2 214 2 448 l2 425 120 2 c66 1 140 2 165 2 l46 1 -2 68 c-1
37 -2 69 -3 72 0 3 -183 5 -406 5 l-405 0 0 -72z"/>
<path d="M500 659 c0 -351 1 -377 18 -381 9 -2 198 -3 420 -2 360 1 402 -1
403 -15 1 -9 1 -40 1 -68 l0 -53 74 0 74 0 0 143 0 142 -87 0 -88 0 0 303 c0
166 -2 302 -5 303 -33 6 -133 3 -137 -5 -4 -5 -7 -143 -7 -305 l-1 -296 -257
0 -258 -1 -1 31 c0 16 -1 153 -1 303 1 149 -2 273 -6 273 -4 1 -37 2 -74 3
l-68 2 0 -377z"/>
</g>
</svg>
